<svg width="15" height="15" viewBox="0 0 15 15" fill="none" xmlns="http://www.w3.org/2000/svg">
<path d="M9.35728 1.88674L9.95717 0.804501C9.96487 0.790616 9.96975 0.775352 9.97155 0.759579C9.97335 0.743805 9.97202 0.727833 9.96765 0.712572C9.96327 0.697312 9.95594 0.683063 9.94605 0.670638C9.93617 0.658214 9.92394 0.647857 9.91005 0.64016C9.88201 0.624615 9.84895 0.620846 9.81813 0.629682C9.78731 0.638518 9.76126 0.659235 9.74571 0.687276L9.13918 1.78151C8.62167 1.55464 8.06275 1.43751 7.4977 1.43751C6.93264 1.43751 6.37372 1.55464 5.85621 1.78151L5.24966 0.687276C5.23412 0.659235 5.20807 0.638518 5.17725 0.629682C5.14643 0.620846 5.11336 0.624615 5.08532 0.64016C5.05728 0.655705 5.03657 0.681752 5.02773 0.712572C5.01889 0.743392 5.02266 0.77646 5.03821 0.804501L5.63811 1.88675C5.06707 2.16823 4.58458 2.60154 4.24356 3.13916C3.90254 3.67677 3.71617 4.29792 3.70489 4.93447H11.2905C11.2792 4.29792 11.0929 3.67677 10.7518 3.13915C10.4108 2.60154 9.92833 2.16823 9.35728 1.88674ZM5.74713 3.54649C5.68449 3.54649 5.62325 3.52792 5.57116 3.49311C5.51907 3.45831 5.47847 3.40884 5.45449 3.35096C5.43052 3.29308 5.42425 3.22939 5.43647 3.16795C5.44869 3.10651 5.47886 3.05007 5.52316 3.00577C5.56746 2.96147 5.62389 2.9313 5.68534 2.91908C5.74678 2.90686 5.81047 2.91313 5.86835 2.93711C5.92623 2.96108 5.9757 3.00168 6.0105 3.05377C6.04531 3.10586 6.06388 3.1671 6.06388 3.22974C6.06379 3.31372 6.03039 3.39423 5.97101 3.45362C5.91162 3.513 5.83111 3.5464 5.74713 3.54649ZM9.24825 3.54649C9.1856 3.54649 9.12436 3.52792 9.07227 3.49311C9.02018 3.45831 8.97958 3.40884 8.95561 3.35096C8.93163 3.29308 8.92536 3.22939 8.93758 3.16795C8.9498 3.10651 8.97997 3.05007 9.02427 3.00577C9.06857 2.96147 9.12501 2.9313 9.18645 2.91908C9.24789 2.90686 9.31158 2.91313 9.36946 2.93711C9.42734 2.96108 9.47681 3.00168 9.51161 3.05377C9.54642 3.10586 9.56499 3.1671 9.56499 3.22974C9.5649 3.31372 9.5315 3.39423 9.47212 3.45362C9.41274 3.513 9.33222 3.5464 9.24825 3.54649ZM3.70483 10.7321C3.70483 10.9753 3.80144 11.2085 3.9734 11.3805C4.14537 11.5525 4.3786 11.6491 4.62179 11.6491H5.23029V13.5247C5.22999 13.6365 5.25176 13.7473 5.29435 13.8508C5.33695 13.9542 5.39953 14.0482 5.47852 14.1274C5.5575 14.2066 5.65134 14.2694 5.75465 14.3123C5.85796 14.3552 5.96872 14.3773 6.08057 14.3773C6.19243 14.3773 6.30319 14.3552 6.4065 14.3123C6.50981 14.2694 6.60365 14.2066 6.68263 14.1274C6.76162 14.0482 6.8242 13.9542 6.8668 13.8508C6.90939 13.7473 6.93116 13.6365 6.93086 13.5247V11.6491H8.06452V13.5247C8.06422 13.6365 8.08599 13.7473 8.12858 13.8508C8.17118 13.9542 8.23376 14.0482 8.31275 14.1274C8.39173 14.2066 8.48557 14.2694 8.58888 14.3123C8.69219 14.3552 8.80295 14.3773 8.9148 14.3773C9.02666 14.3773 9.13742 14.3552 9.24073 14.3123C9.34404 14.2694 9.43788 14.2066 9.51686 14.1274C9.59585 14.0482 9.65843 13.9542 9.70103 13.8508C9.74362 13.7473 9.76539 13.6365 9.76509 13.5247V11.6491H10.3736C10.6168 11.6491 10.85 11.5525 11.022 11.3805C11.194 11.2085 11.2906 10.9753 11.2906 10.7321V5.23453H3.70483V10.7321ZM2.53778 5.08865C2.31235 5.08891 2.09623 5.17857 1.93683 5.33798C1.77742 5.49738 1.68776 5.71351 1.6875 5.93894V9.48173C1.6872 9.59358 1.70897 9.7044 1.75156 9.80782C1.79416 9.91125 1.85674 10.0053 1.93573 10.0845C2.01472 10.1637 2.10855 10.2265 2.21186 10.2694C2.31518 10.3122 2.42593 10.3343 2.53779 10.3343C2.64964 10.3343 2.7604 10.3122 2.86371 10.2694C2.96702 10.2265 3.06086 10.1637 3.13985 10.0845C3.21883 10.0053 3.28142 9.91125 3.32401 9.80782C3.36661 9.7044 3.38837 9.59358 3.38807 9.48173V5.93894C3.38782 5.71351 3.29815 5.49738 3.13875 5.33798C2.97934 5.17857 2.76322 5.0889 2.53778 5.08865ZM12.4576 5.08865C12.2322 5.0889 12.016 5.17857 11.8566 5.33798C11.6972 5.49738 11.6076 5.71351 11.6073 5.93894V9.48173C11.607 9.59358 11.6288 9.7044 11.6714 9.80782C11.714 9.91125 11.7765 10.0053 11.8555 10.0845C11.9345 10.1637 12.0284 10.2265 12.1317 10.2694C12.235 10.3122 12.3457 10.3343 12.4576 10.3343C12.5694 10.3343 12.6802 10.3122 12.7835 10.2694C12.8868 10.2265 12.9807 10.1637 13.0597 10.0845C13.1386 10.0053 13.2012 9.91125 13.2438 9.80782C13.2864 9.7044 13.3082 9.59358 13.3079 9.48173V5.93894C13.3076 5.71351 13.218 5.49738 13.0586 5.33798C12.8992 5.17857 12.683 5.08891 12.4576 5.08865Z" fill="url(#paint0_linear_2006_548)"/>
<defs>
<linearGradient id="paint0_linear_2006_548" x1="7.49769" y1="0.625" x2="7.49769" y2="14.3773" gradientUnits="userSpaceOnUse">
<stop stop-color="#838383"/>
<stop offset="1" stop-color="#999999"/>
</linearGradient>
</defs>
</svg>
