<svg width="15" height="15" viewBox="0 0 15 15" fill="none" xmlns="http://www.w3.org/2000/svg">
<path d="M9.96806 14.9224C9.50993 14.9224 9.10181 14.7674 8.70868 14.6199C8.37181 14.4918 8.05431 14.3718 7.75306 14.3718C7.48556 14.3718 7.18056 14.4861 6.85743 14.6061C6.46681 14.7505 6.02431 14.9161 5.54368 14.9161C4.75368 14.9161 4.04556 14.4636 3.37556 13.5355C3.34743 13.4961 0.619932 9.49051 1.94493 6.51614C2.67056 4.88739 3.71618 4.06051 5.05243 4.06051C5.75743 4.06051 6.40806 4.28176 6.93056 4.45989C7.22306 4.55926 7.49931 4.65301 7.64493 4.65301C7.81681 4.65301 8.09306 4.55239 8.38368 4.44426C8.86868 4.26614 9.47368 4.04301 10.1674 4.04301C11.1731 4.04301 12.0831 4.50739 12.9506 5.46239C12.9798 5.495 13.002 5.53335 13.0157 5.57499C13.0293 5.61662 13.0342 5.66065 13.0299 5.70426C13.0251 5.74779 13.0114 5.78985 12.9895 5.82782C12.9677 5.86578 12.9383 5.89883 12.9031 5.92489C11.9887 6.59114 11.5249 7.36176 11.5249 8.21614C11.5249 9.27426 12.0474 10.0518 13.2693 10.8124C13.3336 10.852 13.3813 10.9137 13.4034 10.986C13.4255 11.0582 13.4205 11.1361 13.3893 11.2049C12.2406 13.7749 11.1856 14.9224 9.96806 14.9224ZM7.67431 3.88176C7.59931 3.88176 7.52368 3.87676 7.44931 3.86801C7.37558 3.85924 7.30743 3.82435 7.25721 3.76966C7.20699 3.71497 7.17802 3.6441 7.17556 3.56989C7.09306 1.47864 8.86556 0.198014 10.1756 0.0792644C10.2534 0.0726351 10.3309 0.0951012 10.3931 0.142318C10.4554 0.189535 10.4979 0.258148 10.5124 0.334889C10.6568 1.13989 10.3868 2.02489 9.76993 2.76239C9.18368 3.46364 8.39993 3.88176 7.67431 3.88176Z" fill="url(#paint0_linear_2006_823)"/>
<defs>
<linearGradient id="paint0_linear_2006_823" x1="7.49949" y1="0.078125" x2="7.49949" y2="14.9224" gradientUnits="userSpaceOnUse">
<stop stop-color="#838383"/>
<stop offset="1" stop-color="#999999"/>
</linearGradient>
</defs>
</svg>
