<svg width="14" height="14" viewBox="0 0 14 14" fill="none" xmlns="http://www.w3.org/2000/svg">
<g clip-path="url(#clip0_228_13867)">
<g clip-path="url(#clip1_228_13867)">
<path d="M4.86914 12.297C4.96504 12.9707 4.46157 13.1902 4.46157 13.8027C4.46157 14.4152 5.14725 14.0171 5.49249 13.4454C6.01994 12.572 5.65699 10.8787 5.77686 10.3427C5.89674 9.80681 6.40205 8.41283 6.64329 8.46897C6.88452 8.5251 7.6152 8.97937 7.48241 9.8981C7.38651 10.5616 6.85906 12.5267 7.67421 11.8887C8.48936 11.2507 8.82501 9.69394 8.72911 8.97937C8.63321 8.26481 7.77011 6.93776 7.77011 6.42736C7.77011 5.91695 8.46538 4.64094 8.80103 4.00295C9.13668 3.36495 9.64692 3.96763 10.6778 4.14628C11.7088 4.32492 11.8089 3.54066 11.4013 3.36202C10.9937 3.18338 10.0238 2.52276 9.16066 2.52276C8.29756 2.52276 8.01466 2.87857 7.37567 2.87857C6.73669 2.87857 6.18776 2.4462 5.32467 2.52276C4.46157 2.59932 3.93412 3.44151 3.33475 3.28839C2.73537 3.13527 2.7114 3.77328 2.9991 4.00295C3.2868 4.23261 3.93412 4.38575 4.46157 4.00295C4.98902 3.62014 5.70826 3.41598 6.01994 3.90086C6.33161 4.38575 5.63634 6.68256 5.32467 7.24401C5.01299 7.80545 4.67734 8.77522 4.60542 9.8981C4.53349 11.021 4.74927 11.4548 4.86914 12.297Z" fill="white"/>
<ellipse cx="7.36847" cy="1.19737" rx="1.10285" ry="1.17393" fill="white"/>
</g>
</g>
<defs>
<clipPath id="clip0_228_13867">
<rect width="14" height="14" fill="white"/>
</clipPath>
<clipPath id="clip1_228_13867">
<rect width="10.6758" height="13.7261" fill="white" transform="translate(2)"/>
</clipPath>
</defs>
</svg>
