<svg width="14" height="14" viewBox="0 0 14 14" fill="none" xmlns="http://www.w3.org/2000/svg">
<g clip-path="url(#clip0_5482_7493)">
<g clip-path="url(#clip1_5482_7493)">
<path d="M4.86719 12.297C4.96309 12.9707 4.45962 13.1902 4.45962 13.8027C4.45962 14.4152 5.1453 14.0171 5.49054 13.4454C6.01798 12.572 5.65504 10.8787 5.77491 10.3427C5.89478 9.80681 6.4001 8.41283 6.64133 8.46897C6.88257 8.5251 7.61324 8.97937 7.48046 9.8981C7.38456 10.5616 6.85711 12.5267 7.67226 11.8887C8.4874 11.2507 8.82305 9.69394 8.72715 8.97937C8.63125 8.26481 7.76816 6.93776 7.76816 6.42736C7.76816 5.91695 8.46343 4.64094 8.79908 4.00295C9.13473 3.36495 9.64497 3.96763 10.6759 4.14628C11.7068 4.32492 11.8069 3.54066 11.3993 3.36202C10.9918 3.18338 10.0218 2.52276 9.1587 2.52276C8.2956 2.52276 8.0127 2.87857 7.37372 2.87857C6.73474 2.87857 6.18581 2.4462 5.32271 2.52276C4.45961 2.59932 3.93217 3.44151 3.33279 3.28839C2.73342 3.13527 2.70944 3.77328 2.99714 4.00295C3.28484 4.23261 3.93217 4.38575 4.45961 4.00295C4.98706 3.62014 5.70631 3.41598 6.01798 3.90086C6.32966 4.38575 5.63439 6.68256 5.32271 7.24401C5.01104 7.80545 4.67539 8.77522 4.60346 9.8981C4.53154 11.021 4.74731 11.4548 4.86719 12.297Z" fill="white"/>
<ellipse cx="7.36847" cy="1.19737" rx="1.10285" ry="1.17393" fill="white"/>
</g>
</g>
<defs>
<clipPath id="clip0_5482_7493">
<rect width="14" height="14" fill="white"/>
</clipPath>
<clipPath id="clip1_5482_7493">
<rect width="10.6758" height="13.7261" fill="white" transform="translate(2)"/>
</clipPath>
</defs>
</svg>
