<svg width="14" height="14" viewBox="0 0 14 14" fill="none" xmlns="http://www.w3.org/2000/svg">
<path d="M4.83333 2.33398H4.5C3.94772 2.33398 3.5 2.7817 3.5 3.33398V10.6673C3.5 11.2196 3.94772 11.6673 4.5 11.6673H4.83333C5.38562 11.6673 5.83333 11.2196 5.83333 10.6673V3.33398C5.83333 2.7817 5.38562 2.33398 4.83333 2.33398Z" fill="white"/>
<path d="M9.4974 2.33398H9.16406C8.61178 2.33398 8.16406 2.7817 8.16406 3.33398V10.6673C8.16406 11.2196 8.61178 11.6673 9.16406 11.6673H9.4974C10.0497 11.6673 10.4974 11.2196 10.4974 10.6673V3.33398C10.4974 2.7817 10.0497 2.33398 9.4974 2.33398Z" fill="white"/>
</svg>
