<svg width="144" height="48" viewBox="0 0 144 48" fill="none" xmlns="http://www.w3.org/2000/svg">
<rect width="144" height="48" rx="16" fill="black"/>
<path d="M44.0991 16.7988V9.62482H46.6893C47.4019 9.62482 48.0101 9.76568 48.5138 10.0474C49.0176 10.3291 49.4021 10.7351 49.6673 11.2654C49.9357 11.7958 50.07 12.4371 50.07 13.1895V13.1994C50.07 13.9584 49.9357 14.6064 49.6673 15.1433C49.4021 15.6802 49.0176 16.0912 48.5138 16.3762C48.0134 16.658 47.4052 16.7988 46.6893 16.7988H44.0991ZM45.2127 15.8343H46.565C47.0655 15.8343 47.4914 15.7316 47.8427 15.5261C48.1973 15.3206 48.4658 15.0223 48.6481 14.6312C48.8337 14.2401 48.9265 13.7678 48.9265 13.2143V13.2044C48.9265 12.6542 48.832 12.1835 48.6431 11.7924C48.4575 11.4013 48.189 11.103 47.8377 10.8975C47.4864 10.6921 47.0621 10.5893 46.565 10.5893H45.2127V15.8343ZM53.2299 16.9032C52.7029 16.9032 52.2472 16.7905 51.8627 16.5652C51.4816 16.3398 51.1882 16.0183 50.9827 15.6007C50.7772 15.1797 50.6745 14.6809 50.6745 14.1042V14.0943C50.6745 13.5143 50.7772 13.0154 50.9827 12.5978C51.1915 12.1802 51.4865 11.8587 51.8677 11.6333C52.2522 11.408 52.7062 11.2953 53.2299 11.2953C53.7569 11.2953 54.211 11.408 54.5921 11.6333C54.9733 11.8554 55.2666 12.1769 55.4721 12.5978C55.6809 13.0154 55.7853 13.5143 55.7853 14.0943V14.1042C55.7853 14.6809 55.6809 15.1797 55.4721 15.6007C55.2666 16.0183 54.9733 16.3398 54.5921 16.5652C54.2143 16.7905 53.7602 16.9032 53.2299 16.9032ZM53.2299 15.9984C53.5381 15.9984 53.8 15.9238 54.0154 15.7747C54.2308 15.6222 54.3949 15.4051 54.5076 15.1234C54.6203 14.8417 54.6766 14.502 54.6766 14.1042V14.0943C54.6766 13.6932 54.6203 13.3519 54.5076 13.0701C54.3949 12.7884 54.2308 12.573 54.0154 12.4238C53.8 12.2714 53.5381 12.1951 53.2299 12.1951C52.9217 12.1951 52.6598 12.2714 52.4444 12.4238C52.229 12.573 52.0632 12.7884 51.9472 13.0701C51.8345 13.3519 51.7782 13.6932 51.7782 14.0943V14.1042C51.7782 14.502 51.8345 14.8417 51.9472 15.1234C52.0632 15.4051 52.229 15.6222 52.4444 15.7747C52.6598 15.9238 52.9217 15.9984 53.2299 15.9984ZM57.3842 16.7988L55.8977 11.3997H56.9864L57.9509 15.5659H58.0354L59.1441 11.3997H60.1732L61.2869 15.5659H61.3664L62.3359 11.3997H63.4048L61.9232 16.7988H60.8046L59.686 12.7718H59.6015L58.4928 16.7988H57.3842ZM64.0043 16.7988V11.3997H65.0832V12.215H65.1677C65.3003 11.9267 65.4958 11.7013 65.7543 11.5389C66.0129 11.3765 66.3393 11.2953 66.7337 11.2953C67.3403 11.2953 67.8043 11.4693 68.1258 11.8173C68.4473 12.1653 68.608 12.6608 68.608 13.3038V16.7988H67.5242V13.5574C67.5242 13.1066 67.4298 12.7718 67.2408 12.5531C67.0552 12.331 66.7636 12.22 66.3658 12.22C66.104 12.22 65.877 12.278 65.6847 12.394C65.4925 12.5067 65.3433 12.6691 65.2373 12.8812C65.1345 13.09 65.0832 13.3403 65.0832 13.6319V16.7988H64.0043ZM69.6501 16.7988V9.28178H70.7289V16.7988H69.6501ZM74.1126 16.9032C73.5856 16.9032 73.1299 16.7905 72.7454 16.5652C72.3642 16.3398 72.0709 16.0183 71.8654 15.6007C71.6599 15.1797 71.5572 14.6809 71.5572 14.1042V14.0943C71.5572 13.5143 71.6599 13.0154 71.8654 12.5978C72.0742 12.1802 72.3692 11.8587 72.7504 11.6333C73.1348 11.408 73.5889 11.2953 74.1126 11.2953C74.6396 11.2953 75.0936 11.408 75.4748 11.6333C75.8559 11.8554 76.1493 12.1769 76.3548 12.5978C76.5636 13.0154 76.668 13.5143 76.668 14.0943V14.1042C76.668 14.6809 76.5636 15.1797 76.3548 15.6007C76.1493 16.0183 75.8559 16.3398 75.4748 16.5652C75.0969 16.7905 74.6429 16.9032 74.1126 16.9032ZM74.1126 15.9984C74.4208 15.9984 74.6826 15.9238 74.8981 15.7747C75.1135 15.6222 75.2776 15.4051 75.3903 15.1234C75.503 14.8417 75.5593 14.502 75.5593 14.1042V14.0943C75.5593 13.6932 75.503 13.3519 75.3903 13.0701C75.2776 12.7884 75.1135 12.573 74.8981 12.4238C74.6826 12.2714 74.4208 12.1951 74.1126 12.1951C73.8043 12.1951 73.5425 12.2714 73.3271 12.4238C73.1116 12.573 72.9459 12.7884 72.8299 13.0701C72.7172 13.3519 72.6609 13.6932 72.6609 14.0943V14.1042C72.6609 14.502 72.7172 14.8417 72.8299 15.1234C72.9459 15.4051 73.1116 15.6222 73.3271 15.7747C73.5425 15.9238 73.8043 15.9984 74.1126 15.9984ZM78.9231 16.8883C78.5817 16.8883 78.2751 16.8237 78.0033 16.6944C77.7349 16.5618 77.5227 16.3746 77.367 16.1326C77.2112 15.8907 77.1333 15.6073 77.1333 15.2825V15.2725C77.1333 14.9477 77.2112 14.671 77.367 14.4423C77.5261 14.2136 77.7548 14.0346 78.0531 13.9054C78.3547 13.7728 78.7192 13.6932 79.1468 13.6667L81.1404 13.5474V14.3081L79.2959 14.4274C78.9247 14.4506 78.6513 14.5301 78.4756 14.666C78.3 14.7986 78.2121 14.9859 78.2121 15.2278V15.2377C78.2121 15.483 78.3066 15.6769 78.4955 15.8194C78.6844 15.9586 78.9231 16.0282 79.2114 16.0282C79.4799 16.0282 79.7185 15.9752 79.9273 15.8691C80.1395 15.7598 80.3052 15.6139 80.4245 15.4316C80.5438 15.246 80.6035 15.0372 80.6035 14.8052V13.1049C80.6035 12.8066 80.5107 12.5796 80.3251 12.4238C80.1428 12.2647 79.871 12.1852 79.5097 12.1852C79.2081 12.1852 78.9612 12.2382 78.769 12.3443C78.58 12.4503 78.4541 12.5995 78.3911 12.7917L78.3812 12.8066H77.3421L77.3471 12.7718C77.3902 12.4735 77.5078 12.215 77.7001 11.9963C77.8956 11.7742 78.1508 11.6019 78.4657 11.4792C78.7839 11.3566 79.1468 11.2953 79.5545 11.2953C80.0085 11.2953 80.393 11.3682 80.7079 11.514C81.0261 11.6565 81.2664 11.8637 81.4288 12.1355C81.5945 12.4039 81.6773 12.7271 81.6773 13.1049V16.7988H80.6035V16.0332H80.5239C80.4179 16.2155 80.2853 16.3713 80.1262 16.5005C79.9671 16.6265 79.7865 16.7226 79.5843 16.7889C79.3821 16.8552 79.1617 16.8883 78.9231 16.8883ZM84.6583 16.8883C84.2076 16.8883 83.8131 16.7756 83.4751 16.5502C83.1403 16.3216 82.8801 15.9984 82.6945 15.5808C82.5122 15.1632 82.4211 14.671 82.4211 14.1042V14.0943C82.4211 13.5242 82.5122 13.0304 82.6945 12.6127C82.8768 12.1951 83.1353 11.8736 83.4701 11.6483C83.8049 11.4196 84.2009 11.3052 84.6583 11.3052C84.9069 11.3052 85.1389 11.345 85.3543 11.4245C85.5698 11.5008 85.7603 11.6101 85.9261 11.7527C86.0918 11.8919 86.2227 12.0592 86.3188 12.2548H86.3984V9.28178H87.4822V16.7988H86.3984V15.9487H86.3188C86.2128 16.1442 86.0785 16.3133 85.9161 16.4558C85.7537 16.595 85.5665 16.7027 85.3543 16.7789C85.1422 16.8519 84.9102 16.8883 84.6583 16.8883ZM84.9665 15.9636C85.2648 15.9636 85.5234 15.889 85.7421 15.7399C85.9609 15.5907 86.1282 15.377 86.2442 15.0985C86.3602 14.8168 86.4183 14.4854 86.4183 14.1042V14.0943C86.4183 13.7098 86.3586 13.3784 86.2393 13.1C86.1233 12.8216 85.9559 12.6078 85.7371 12.4586C85.5217 12.3062 85.2648 12.2299 84.9665 12.2299C84.6683 12.2299 84.4097 12.3062 84.191 12.4586C83.9755 12.6078 83.8098 12.8216 83.6938 13.1C83.5811 13.3751 83.5248 13.7065 83.5248 14.0943V14.1042C83.5248 14.4887 83.5811 14.8201 83.6938 15.0985C83.8098 15.377 83.9755 15.5907 84.191 15.7399C84.4097 15.889 84.6683 15.9636 84.9665 15.9636ZM93.1259 16.9032C92.5989 16.9032 92.1432 16.7905 91.7587 16.5652C91.3776 16.3398 91.0843 16.0183 90.8788 15.6007C90.6733 15.1797 90.5705 14.6809 90.5705 14.1042V14.0943C90.5705 13.5143 90.6733 13.0154 90.8788 12.5978C91.0876 12.1802 91.3826 11.8587 91.7637 11.6333C92.1482 11.408 92.6022 11.2953 93.1259 11.2953C93.6529 11.2953 94.107 11.408 94.4881 11.6333C94.8693 11.8554 95.1626 12.1769 95.3681 12.5978C95.5769 13.0154 95.6813 13.5143 95.6813 14.0943V14.1042C95.6813 14.6809 95.5769 15.1797 95.3681 15.6007C95.1626 16.0183 94.8693 16.3398 94.4881 16.5652C94.1103 16.7905 93.6562 16.9032 93.1259 16.9032ZM93.1259 15.9984C93.4342 15.9984 93.696 15.9238 93.9114 15.7747C94.1269 15.6222 94.2909 15.4051 94.4036 15.1234C94.5163 14.8417 94.5727 14.502 94.5727 14.1042V14.0943C94.5727 13.6932 94.5163 13.3519 94.4036 13.0701C94.2909 12.7884 94.1269 12.573 93.9114 12.4238C93.696 12.2714 93.4342 12.1951 93.1259 12.1951C92.8177 12.1951 92.5558 12.2714 92.3404 12.4238C92.125 12.573 91.9593 12.7884 91.8433 13.0701C91.7306 13.3519 91.6742 13.6932 91.6742 14.0943V14.1042C91.6742 14.502 91.7306 14.8417 91.8433 15.1234C91.9593 15.4051 92.125 15.6222 92.3404 15.7747C92.5558 15.9238 92.8177 15.9984 93.1259 15.9984ZM96.4549 16.7988V11.3997H97.5337V12.215H97.6183C97.7508 11.9267 97.9464 11.7013 98.2049 11.5389C98.4634 11.3765 98.7899 11.2953 99.1843 11.2953C99.7908 11.2953 100.255 11.4693 100.576 11.8173C100.898 12.1653 101.059 12.6608 101.059 13.3038V16.7988H99.9748V13.5574C99.9748 13.1066 99.8803 12.7718 99.6914 12.5531C99.5058 12.331 99.2141 12.22 98.8164 12.22C98.5546 12.22 98.3275 12.278 98.1353 12.394C97.9431 12.5067 97.7939 12.6691 97.6879 12.8812C97.5851 13.09 97.5337 13.3403 97.5337 13.6319V16.7988H96.4549ZM106.354 16.8336C105.764 16.8336 105.337 16.7209 105.072 16.4956C104.81 16.2669 104.679 15.894 104.679 15.377V12.2498H103.834V11.3997H104.679V10.0375H105.783V11.3997H106.941V12.2498H105.783V15.1135C105.783 15.4051 105.841 15.6156 105.957 15.7449C106.073 15.8708 106.265 15.9338 106.533 15.9338C106.613 15.9338 106.681 15.9321 106.737 15.9288C106.797 15.9255 106.865 15.9205 106.941 15.9139V16.7789C106.855 16.7922 106.762 16.8038 106.663 16.8137C106.563 16.827 106.46 16.8336 106.354 16.8336ZM107.744 16.7988V9.28178H108.823V12.215H108.908C109.04 11.9267 109.236 11.7013 109.494 11.5389C109.753 11.3765 110.079 11.2953 110.474 11.2953C110.875 11.2953 111.215 11.3732 111.493 11.5289C111.771 11.6847 111.983 11.9134 112.129 12.215C112.275 12.5133 112.348 12.8762 112.348 13.3038V16.7988H111.264V13.5574C111.264 13.1066 111.17 12.7718 110.981 12.5531C110.795 12.331 110.504 12.22 110.106 12.22C109.844 12.22 109.617 12.278 109.425 12.394C109.233 12.5067 109.083 12.6691 108.977 12.8812C108.875 13.09 108.823 13.3403 108.823 13.6319V16.7988H107.744ZM115.607 16.9032C115.08 16.9032 114.628 16.7905 114.25 16.5652C113.872 16.3365 113.581 16.0133 113.375 15.5957C113.173 15.1781 113.072 14.6842 113.072 14.1142V14.1092C113.072 13.5458 113.173 13.0536 113.375 12.6326C113.581 12.2117 113.869 11.8836 114.24 11.6483C114.615 11.4129 115.052 11.2953 115.553 11.2953C116.057 11.2953 116.489 11.408 116.85 11.6333C117.215 11.8587 117.495 12.1752 117.691 12.5829C117.886 12.9873 117.984 13.4612 117.984 14.0048V14.3826H113.619V13.612H117.447L116.93 14.3279V13.8954C116.93 13.5109 116.87 13.1928 116.751 12.9409C116.635 12.6857 116.474 12.4951 116.269 12.3691C116.063 12.2432 115.826 12.1802 115.558 12.1802C115.289 12.1802 115.049 12.2465 114.837 12.3791C114.628 12.5083 114.462 12.7006 114.34 12.9558C114.22 13.211 114.161 13.5242 114.161 13.8954V14.3279C114.161 14.6826 114.22 14.9859 114.34 15.2377C114.459 15.4896 114.628 15.6819 114.847 15.8145C115.069 15.947 115.331 16.0133 115.632 16.0133C115.864 16.0133 116.063 15.9818 116.229 15.9189C116.398 15.8526 116.535 15.7714 116.642 15.6752C116.751 15.5791 116.825 15.4847 116.865 15.3919L116.885 15.3521H117.929L117.919 15.3968C117.873 15.5758 117.792 15.7548 117.676 15.9338C117.56 16.1094 117.406 16.2702 117.213 16.416C117.024 16.5618 116.796 16.6795 116.527 16.769C116.262 16.8585 115.955 16.9032 115.607 16.9032Z" fill="white"/>
<path d="M45.8465 36.5996H43.4102L48.3672 22.2031H51.0461L55.9926 36.5996H53.4613L52.1852 32.6129H47.1332L45.8465 36.5996ZM49.7172 24.6922H49.6223L47.6711 30.7777H51.6473L49.7172 24.6922ZM62.7165 36.7578C61.2715 36.7578 60.1747 36.0723 59.584 35.0492H59.4997V40.3016H57.1583V25.4516H59.4364V27.0863H59.5208C60.1325 26.0211 61.2715 25.3039 62.7692 25.3039C65.2688 25.3039 67.0512 27.1918 67.0512 30.5246V31.516C67.0512 34.8277 65.2899 36.7578 62.7165 36.7578ZM62.1786 34.8277C63.6657 34.8277 64.6782 33.6359 64.6782 31.3895V30.609C64.6782 28.4469 63.729 27.2129 62.1364 27.2129C60.5016 27.2129 59.4786 28.5418 59.4786 30.5984V31.3895C59.4786 33.4988 60.5122 34.8277 62.1786 34.8277ZM74.6189 36.7578C73.174 36.7578 72.0771 36.0723 71.4865 35.0492H71.4021V40.3016H69.0607V25.4516H71.3388V27.0863H71.4232C72.0349 26.0211 73.174 25.3039 74.6716 25.3039C77.1712 25.3039 78.9536 27.1918 78.9536 30.5246V31.516C78.9536 34.8277 77.1923 36.7578 74.6189 36.7578ZM74.081 34.8277C75.5681 34.8277 76.5806 33.6359 76.5806 31.3895V30.609C76.5806 28.4469 75.6314 27.2129 74.0388 27.2129C72.404 27.2129 71.381 28.5418 71.381 30.5984V31.3895C71.381 33.4988 72.4146 34.8277 74.081 34.8277ZM83.8057 32.6023H86.1471C86.2526 33.8469 87.3495 34.9121 89.385 34.9121C91.2518 34.9121 92.3592 34.0367 92.3592 32.6762C92.3592 31.5793 91.6209 30.9887 90.0811 30.6195L87.7186 30.0289C85.8624 29.5965 84.1959 28.4891 84.1959 26.1477C84.1959 23.3949 86.6006 21.8867 89.3956 21.8867C92.1905 21.8867 94.5213 23.3949 94.5741 26.0844H92.2749C92.1694 24.8609 91.2307 23.8484 89.3639 23.8484C87.7186 23.8484 86.6006 24.6289 86.6006 25.9684C86.6006 26.907 87.2545 27.582 88.594 27.8879L90.9459 28.468C93.1081 28.9953 94.7534 30.0184 94.7534 32.4652C94.7534 35.2918 92.4647 36.8844 89.2057 36.8844C85.1979 36.8844 83.8584 34.543 83.8057 32.6023ZM97.6066 25.4516V22.741H99.9058V25.4516H102.078V27.3289H99.9058V33.2773C99.9058 34.4902 100.359 34.8277 101.614 34.8277C101.815 34.8277 102.005 34.8277 102.142 34.8066V36.5996C101.952 36.6312 101.509 36.6734 101.034 36.6734C98.3238 36.6734 97.5749 35.7031 97.5749 33.4672V27.3289H96.0351V25.4516H97.6066ZM108.402 25.2617C111.608 25.2617 113.348 27.5188 113.348 30.5563V31.4527C113.348 34.5957 111.618 36.7895 108.402 36.7895C105.185 36.7895 103.434 34.5957 103.434 31.4527V30.5563C103.434 27.5293 105.195 25.2617 108.402 25.2617ZM108.402 27.1391C106.661 27.1391 105.796 28.5629 105.796 30.5879V31.4422C105.796 33.4355 106.651 34.9016 108.402 34.9016C110.152 34.9016 110.996 33.4461 110.996 31.4422V30.5879C110.996 28.5523 110.142 27.1391 108.402 27.1391ZM115.326 36.5996V25.4516H117.667V26.9176H117.752C118.036 26.2215 118.87 25.2934 120.42 25.2934C120.726 25.2934 120.989 25.3145 121.211 25.3566V27.4238C121.011 27.3711 120.599 27.3395 120.209 27.3395C118.332 27.3395 117.699 28.4996 117.699 29.9973V36.5996H115.326ZM126.891 36.7895C123.906 36.7895 122.008 34.8172 122.008 31.516V30.3875C122.008 27.2762 123.864 25.2617 126.796 25.2617C129.77 25.2617 131.563 27.35 131.563 30.493V31.5582H124.317V31.8219C124.317 33.6992 125.33 34.9438 126.922 34.9438C128.114 34.9438 128.926 34.3531 129.211 33.3934H131.436C131.099 35.1969 129.643 36.7895 126.891 36.7895ZM124.317 29.9234H129.274V29.9023C129.274 28.3203 128.293 27.0758 126.806 27.0758C125.298 27.0758 124.317 28.3203 124.317 29.9023V29.9234Z" fill="white"/>
<g clip-path="url(#clip0_2006_752)">
<path d="M28.3025 38.3992C27.4363 38.3992 26.6645 38.1061 25.9212 37.8272C25.2842 37.5849 24.6838 37.358 24.1142 37.358C23.6083 37.358 23.0316 37.5743 22.4206 37.8012C21.682 38.0742 20.8453 38.3874 19.9364 38.3874C18.4426 38.3874 17.1036 37.5318 15.8367 35.7768C15.7835 35.7023 10.6261 28.128 13.1315 22.5038C14.5036 19.424 16.4808 17.8604 19.0075 17.8604C20.3406 17.8604 21.5709 18.2788 22.5589 18.6156C23.112 18.8035 23.6343 18.9808 23.9097 18.9808C24.2347 18.9808 24.7571 18.7905 25.3066 18.586C26.2237 18.2492 27.3677 17.8273 28.6795 17.8273C30.5811 17.8273 32.3018 18.7054 33.9422 20.5112C33.9975 20.5729 34.0394 20.6454 34.0653 20.7241C34.0911 20.8029 34.1003 20.8861 34.0923 20.9686C34.0831 21.0509 34.0571 21.1304 34.0158 21.2022C33.9746 21.274 33.9189 21.3365 33.8523 21.3858C32.1233 22.6456 31.2464 24.1028 31.2464 25.7183C31.2464 27.7191 32.2344 29.1893 34.5449 30.6276C34.6665 30.7025 34.7566 30.8193 34.7984 30.9559C34.8401 31.0925 34.8307 31.2396 34.7718 31.3698C32.5996 36.2294 30.6047 38.3992 28.3025 38.3992ZM23.9653 17.5224C23.8234 17.5224 23.6804 17.513 23.5398 17.4964C23.4004 17.4798 23.2715 17.4138 23.1766 17.3104C23.0816 17.207 23.0268 17.073 23.0222 16.9327C22.8662 12.9783 26.2178 10.5568 28.6949 10.3322C28.8421 10.3197 28.9886 10.3622 29.1063 10.4515C29.224 10.5407 29.3043 10.6705 29.3319 10.8156C29.6049 12.3378 29.0943 14.0112 27.9279 15.4058C26.8193 16.7318 25.3373 17.5224 23.9653 17.5224Z" fill="white"/>
</g>
<defs>
<clipPath id="clip0_2006_752">
<rect width="28.3636" height="28.3636" fill="white" transform="translate(9.45312 10.1816)"/>
</clipPath>
</defs>
</svg>
