<svg width="144" height="48" viewBox="0 0 144 48" fill="none" xmlns="http://www.w3.org/2000/svg">
<rect width="144" height="48" rx="16" fill="black"/>
<path d="M47.6424 18.1932C47.0742 18.1932 46.561 18.0928 46.1026 17.892C45.6481 17.6913 45.2579 17.4034 44.9322 17.0284C44.6102 16.6534 44.3621 16.2027 44.1879 15.6761C44.0136 15.1496 43.9265 14.5587 43.9265 13.9034V13.892C43.9265 13.0284 44.0799 12.2765 44.3867 11.6364C44.6935 10.9924 45.1254 10.4943 45.6822 10.142C46.2428 9.78599 46.8962 9.60795 47.6424 9.60795C48.2485 9.60795 48.7882 9.71591 49.2617 9.93182C49.739 10.1439 50.131 10.4432 50.4379 10.8295C50.7485 11.2159 50.9568 11.6686 51.0629 12.1875L51.0742 12.2443H50.0401L50.0231 12.1875C49.8564 11.6572 49.5704 11.2519 49.1651 10.9716C48.7598 10.6913 48.2522 10.5511 47.6424 10.5511C47.1007 10.5511 46.6291 10.6894 46.2276 10.9659C45.8299 11.2386 45.5212 11.625 45.3015 12.125C45.0818 12.625 44.9719 13.214 44.9719 13.892V13.9034C44.9719 14.4186 45.0326 14.8826 45.1538 15.2955C45.2788 15.7083 45.4568 16.0606 45.6879 16.3523C45.9227 16.6402 46.2049 16.8617 46.5344 17.017C46.864 17.1723 47.2352 17.25 47.6481 17.25C48.1367 17.25 48.5647 17.1534 48.9322 16.9602C49.3034 16.7633 49.5913 16.4905 49.7958 16.142C50.0004 15.7936 50.1026 15.3883 50.1026 14.9261V14.7273H47.8015V13.8295H51.1254V14.8295C51.1254 15.3333 51.042 15.7917 50.8754 16.2045C50.7125 16.6174 50.4776 16.9735 50.1708 17.2727C49.864 17.5682 49.4966 17.7955 49.0685 17.9545C48.6405 18.1136 48.1651 18.1932 47.6424 18.1932ZM52.5888 18V9.80114H57.6683V10.7216H53.6115V13.3523H57.4581V14.2614H53.6115V17.0795H57.6683V18H52.5888ZM61.3022 18V10.7216H58.6601V9.80114H64.9669V10.7216H62.3249V18H61.3022ZM69.121 18V9.80114H70.1438V18H69.121ZM74.0163 18V10.7216H71.3742V9.80114H77.681V10.7216H75.039V18H74.0163ZM85.2783 18.1932C84.4942 18.1932 83.8219 18.0189 83.2613 17.6705C82.7007 17.3182 82.2688 16.8201 81.9658 16.1761C81.6666 15.5322 81.5169 14.7746 81.5169 13.9034V13.892C81.5169 13.0133 81.6685 12.2538 81.9715 11.6136C82.2783 10.9735 82.712 10.4792 83.2726 10.1307C83.837 9.7822 84.5056 9.60795 85.2783 9.60795C86.0548 9.60795 86.7234 9.7822 87.284 10.1307C87.8484 10.4792 88.2821 10.9754 88.5851 11.6193C88.8882 12.2595 89.0397 13.017 89.0397 13.892V13.9034C89.0397 14.7746 88.8882 15.5322 88.5851 16.1761C88.2859 16.8163 87.8541 17.3125 87.2897 17.6648C86.7291 18.017 86.0586 18.1932 85.2783 18.1932ZM85.2783 17.25C85.8389 17.25 86.3219 17.1117 86.7272 16.8352C87.1325 16.5587 87.445 16.1705 87.6647 15.6705C87.8844 15.1667 87.9942 14.5777 87.9942 13.9034V13.892C87.9942 13.2102 87.8844 12.6193 87.6647 12.1193C87.445 11.6193 87.1325 11.233 86.7272 10.9602C86.3219 10.6875 85.8389 10.5511 85.2783 10.5511C84.7215 10.5511 84.2404 10.6875 83.8351 10.9602C83.4298 11.233 83.1154 11.6193 82.8919 12.1193C82.6722 12.6193 82.5624 13.2102 82.5624 13.892V13.9034C82.5624 14.5777 82.6704 15.1667 82.8863 15.6705C83.1022 16.1705 83.4128 16.5587 83.8181 16.8352C84.2234 17.1117 84.7101 17.25 85.2783 17.25ZM90.4633 18V9.80114H91.4576L96.1565 16.5398L95.4747 16.1818H95.9974V9.80114H97.0088V18H96.0144L91.3156 11.2841L91.9974 11.642H91.4747V18H90.4633Z" fill="white"/>
<path d="M112.221 37.6916H114.176V24.4778H112.221V37.6916ZM129.826 29.2375L127.585 34.9666H127.518L125.193 29.2375H123.087L126.574 37.2445L124.587 41.6987H126.625L131.999 29.2375H129.826ZM118.741 36.1906C118.1 36.1906 117.208 35.8682 117.208 35.0681C117.208 34.0491 118.319 33.658 119.28 33.658C120.139 33.658 120.544 33.8451 121.066 34.0998C120.914 35.3239 119.87 36.1906 118.741 36.1906ZM118.977 28.949C117.562 28.949 116.096 29.5779 115.49 30.9721L117.225 31.7025C117.596 30.9721 118.286 30.7332 119.011 30.7332C120.021 30.7332 121.049 31.3452 121.066 32.434V32.5693C120.712 32.3653 119.954 32.0598 119.027 32.0598C117.158 32.0598 115.253 33.0967 115.253 35.0342C115.253 36.8026 116.787 37.9421 118.505 37.9421C119.819 37.9421 120.544 37.347 120.999 36.6494H121.066V37.6694H122.952V32.6031C122.952 30.2576 121.218 28.949 118.977 28.949ZM106.898 30.8463H104.118V26.317H106.898C108.359 26.317 109.189 27.5378 109.189 28.5811C109.189 29.6054 108.359 30.8463 106.898 30.8463ZM106.847 24.4778H102.164V37.6916H104.118V32.6855H106.847C109.014 32.6855 111.143 31.1021 111.143 28.5811C111.143 26.0601 109.014 24.4778 106.847 24.4778ZM81.3092 36.1927C79.959 36.1927 78.8288 35.0522 78.8288 33.4857C78.8288 31.9023 79.959 30.7438 81.3092 30.7438C82.6426 30.7438 83.688 31.9023 83.688 33.4857C83.688 35.0522 82.6426 36.1927 81.3092 36.1927ZM83.5539 29.9774H83.4858C83.0469 29.45 82.2037 28.9733 81.1405 28.9733C78.9126 28.9733 76.8711 30.9478 76.8711 33.4857C76.8711 36.0056 78.9126 37.9643 81.1405 37.9643C82.2037 37.9643 83.0469 37.4876 83.4858 36.9422H83.5539V37.5901C83.5539 39.3099 82.6426 40.2295 81.1741 40.2295C79.9758 40.2295 79.2331 39.3606 78.9293 38.6281L77.2251 39.3437C77.7143 40.536 79.0142 42 81.1741 42C83.4691 42 85.41 40.6375 85.41 37.3174V29.2449H83.5539V29.9774ZM86.7602 37.6916H88.7179V24.4767H86.7602V37.6916ZM91.6026 33.3324C91.5524 31.5957 92.9361 30.71 93.9312 30.71C94.7084 30.71 95.3662 31.1011 95.5851 31.6634L91.6026 33.3324ZM97.6779 31.8336C97.3071 30.8294 96.1759 28.9733 93.8641 28.9733C91.5691 28.9733 89.6627 30.7945 89.6627 33.4688C89.6627 35.9887 91.5524 37.9643 94.083 37.9643C96.1256 37.9643 97.3071 36.7043 97.7963 35.9718L96.2775 34.9497C95.7715 35.6991 95.0792 36.1927 94.083 36.1927C93.0879 36.1927 92.3788 35.7329 91.9232 34.8313L97.8801 32.3441L97.6779 31.8336ZM50.2193 30.3527V32.2596H54.7413C54.6061 33.3324 54.2521 34.1157 53.7126 34.66C53.0538 35.3249 52.0241 36.0574 50.2193 36.0574C47.4341 36.0574 45.2575 33.7922 45.2575 30.9827C45.2575 28.1721 47.4341 25.9079 50.2193 25.9079C51.7214 25.9079 52.8181 26.5041 53.6278 27.2704L54.9612 25.9248C53.83 24.835 52.3289 24 50.2193 24C46.4055 24 43.1992 27.1341 43.1992 30.9827C43.1992 34.8313 46.4055 37.9643 50.2193 37.9643C52.2776 37.9643 53.83 37.2825 55.045 36.0056C56.2946 34.7457 56.6822 32.9752 56.6822 31.544C56.6822 31.1011 56.6487 30.6931 56.5806 30.3527H50.2193ZM61.8242 36.1927C60.474 36.1927 59.3092 35.0691 59.3092 33.4688C59.3092 31.8505 60.474 30.7438 61.8242 30.7438C63.1734 30.7438 64.3381 31.8505 64.3381 33.4688C64.3381 35.0691 63.1734 36.1927 61.8242 36.1927ZM61.8242 28.9733C59.3595 28.9733 57.3515 30.8632 57.3515 33.4688C57.3515 36.0574 59.3595 37.9643 61.8242 37.9643C64.2879 37.9643 66.2959 36.0574 66.2959 33.4688C66.2959 30.8632 64.2879 28.9733 61.8242 28.9733ZM71.5793 36.1927C70.2291 36.1927 69.0643 35.0691 69.0643 33.4688C69.0643 31.8505 70.2291 30.7438 71.5793 30.7438C72.9295 30.7438 74.0932 31.8505 74.0932 33.4688C74.0932 35.0691 72.9295 36.1927 71.5793 36.1927ZM71.5793 28.9733C69.1156 28.9733 67.1076 30.8632 67.1076 33.4688C67.1076 36.0574 69.1156 37.9643 71.5793 37.9643C74.0429 37.9643 76.0509 36.0574 76.0509 33.4688C76.0509 30.8632 74.0429 28.9733 71.5793 28.9733Z" fill="white"/>
<path d="M21.3615 23.2741L9.45312 36.1179C9.45424 36.1202 9.45424 36.1236 9.45536 36.1259C9.8211 37.5205 11.0738 38.5469 12.5613 38.5469C13.1564 38.5469 13.7145 38.3832 14.1932 38.0968L14.2312 38.074L27.6349 30.2143L21.3615 23.2741Z" fill="#EA4335"/>
<path d="M33.2535 21.5512L33.2425 21.5433L27.5279 18.1832L21.0898 23.9948L27.5511 30.5469L33.2347 27.2204C34.231 26.6736 34.908 25.6081 34.908 24.3802C34.908 23.1589 34.2409 22.099 33.2535 21.5512Z" fill="#FBBC04"/>
<path d="M9.56217 12.3633C9.49096 12.6274 9.45312 12.9049 9.45312 13.1914V35.5363C9.45312 35.8228 9.49096 36.1003 9.56329 36.3633L21.8168 24.0416L9.56217 12.3633Z" fill="#4285F4"/>
<path d="M21.4646 24L27.6349 17.769L14.2304 9.91941C13.7433 9.6242 13.1744 9.45455 12.5663 9.45455C11.0769 9.45455 9.82043 10.4782 9.45424 11.8671C9.45424 11.8682 9.45312 11.8694 9.45312 11.8705L21.4646 24Z" fill="#34A853"/>
</svg>
