<svg width="24" height="24" viewBox="0 0 24 24" fill="none" xmlns="http://www.w3.org/2000/svg">
<g opacity="0.5">
<path d="M7.88061 22.2216C3.80694 19.9635 2.73443 17.8261 3.34761 14.9069C3.80029 12.7514 5.28257 10.9977 5.4247 8.8463C6.05788 9.97961 6.32246 10.7968 6.39321 11.9811C8.40705 9.55438 9.73784 6.19491 9.81664 2.66602C9.81664 2.66602 15.062 5.69729 15.4062 10.2761C15.8577 9.33229 16.085 7.83338 15.6335 6.86192C16.9881 7.83342 24.917 16.4578 14.5595 22.2216C16.5068 18.4924 15.0619 13.4605 11.6808 11.1365C11.9066 12.1358 11.5107 15.8628 10.0149 17.5005C10.4294 14.7641 9.6206 13.607 9.6206 13.607C9.6206 13.607 9.343 15.1397 8.26595 16.6881C7.28242 18.102 6.60093 19.6026 7.88061 22.2216Z" fill="white"/>
</g>
</svg>
