<svg width="14" height="14" viewBox="0 0 14 14" fill="none" xmlns="http://www.w3.org/2000/svg">
<g clip-path="url(#clip0_228_13985)">
<path d="M0 7C0 6.72386 0.223858 6.5 0.5 6.5C0.776142 6.5 1 6.72386 1 7C1 7.27614 0.776142 7.5 0.5 7.5C0.223858 7.5 0 7.27614 0 7Z" fill="#FD3030"/>
<path d="M2.22034 4C2.22034 3.72386 2.4442 3.5 2.72034 3.5C2.99648 3.5 3.22034 3.72386 3.22034 4V10C3.22034 10.2761 2.99648 10.5 2.72034 10.5C2.4442 10.5 2.22034 10.2761 2.22034 10V4Z" fill="#FD3030"/>
<path d="M4.44068 2C4.44068 1.72386 4.66454 1.5 4.94068 1.5C5.21682 1.5 5.44068 1.72386 5.44068 2V12C5.44068 12.2761 5.21682 12.5 4.94068 12.5C4.66454 12.5 4.44068 12.2761 4.44068 12V2Z" fill="#FD3030"/>
<path d="M6.66102 4.5C6.66102 4.22386 6.88487 4 7.16102 4C7.43716 4 7.66102 4.22386 7.66102 4.5V9.5C7.66102 9.77614 7.43716 10 7.16102 10C6.88487 10 6.66102 9.77614 6.66102 9.5V4.5Z" fill="#FD3030"/>
<path d="M8.88136 2C8.88136 1.72386 9.10521 1.5 9.38136 1.5C9.6575 1.5 9.88136 1.72386 9.88136 2V12C9.88136 12.2761 9.6575 12.5 9.38136 12.5C9.10521 12.5 8.88136 12.2761 8.88136 12V2Z" fill="#FD3030"/>
<path d="M11.1017 5.5C11.1017 5.22386 11.3256 5 11.6017 5C11.8778 5 12.1017 5.22386 12.1017 5.5V8.5C12.1017 8.77614 11.8778 9 11.6017 9C11.3256 9 11.1017 8.77614 11.1017 8.5V5.5Z" fill="#FD3030"/>
<path d="M13.322 7C13.322 6.72386 13.5459 6.5 13.822 6.5C14.0982 6.5 14.322 6.72386 14.322 7C14.322 7.27614 14.0982 7.5 13.822 7.5C13.5459 7.5 13.322 7.27614 13.322 7Z" fill="#FD3030"/>
</g>
<defs>
<clipPath id="clip0_228_13985">
<rect width="14" height="14" fill="white"/>
</clipPath>
</defs>
</svg>
