<svg width="27" height="27" viewBox="0 0 27 27" fill="none" xmlns="http://www.w3.org/2000/svg">
<g opacity="0.5">
<path d="M13.968 5.66797C14.3612 5.66797 14.68 5.98676 14.68 6.38001C14.68 6.77326 14.3612 7.09205 13.968 7.09205L2.57532 7.09205C2.18207 7.09205 1.86328 6.77326 1.86328 6.38001C1.86328 5.98676 2.18207 5.66797 2.57532 5.66797L13.968 5.66797Z" fill="white"/>
<path d="M21.0884 9.22818C21.4816 9.22818 21.8004 9.54697 21.8004 9.94022C21.8004 10.3335 21.4816 10.6523 21.0884 10.6523L2.57532 10.6523C2.18207 10.6523 1.86328 10.3335 1.86328 9.94022C1.86328 9.54697 2.18207 9.22818 2.57532 9.22818L21.0884 9.22818Z" fill="white"/>
<path d="M13.968 12.7884C14.3612 12.7884 14.68 13.1072 14.68 13.5004C14.68 13.8937 14.3612 14.2125 13.968 14.2125L2.57532 14.2125C2.18207 14.2125 1.86328 13.8937 1.86328 13.5004C1.86328 13.1072 2.18207 12.7884 2.57532 12.7884L13.968 12.7884Z" fill="white"/>
<path d="M16.8161 16.3486C17.2094 16.3486 17.5282 16.6674 17.5282 17.0606C17.5282 17.4539 17.2094 17.7727 16.8161 17.7727L2.57532 17.7727C2.18207 17.7727 1.86328 17.4539 1.86328 17.0606C1.86328 16.6674 2.18207 16.3486 2.57532 16.3486H16.8161Z" fill="white"/>
<path d="M16.8161 19.9088C17.2094 19.9088 17.5282 20.2276 17.5282 20.6208C17.5282 21.0141 17.2094 21.3329 16.8161 21.3329L2.57532 21.3329C2.18207 21.3329 1.86328 21.0141 1.86328 20.6208C1.86328 20.2276 2.18207 19.9088 2.57532 19.9088L16.8161 19.9088Z" fill="white"/>
<path d="M20.139 19.9088C20.5323 19.9088 20.8511 20.2276 20.8511 20.6208C20.8511 21.0141 20.5323 21.3329 20.139 21.3329C19.7458 21.3329 19.427 21.0141 19.427 20.6208C19.427 20.2276 19.7458 19.9088 20.139 19.9088Z" fill="white"/>
</g>
</svg>
