<svg width="158" height="27" viewBox="0 0 158 27" fill="none" xmlns="http://www.w3.org/2000/svg">
<path d="M14.1201 5.01758C15.8847 4.87234 17.0071 5.69238 18.3135 5.69238C19.6197 5.69233 20.1984 5.01758 21.9629 5.01758C23.1028 5.01765 24.3336 5.5414 25.2871 6.00293C25.5008 5.99397 25.7101 6.01271 25.9062 6.06836C27.6746 6.57022 29.1283 6.68913 30.2012 6.44434C31.8478 6.06878 33.9371 8.27491 34.6846 9.56152C35.4319 10.8481 34.9338 12.3819 32.293 10.1553C29.652 7.92841 34.3181 16.8209 34.4854 17.4297C34.7843 18.5184 31.3461 18.2715 30.7979 18.2715C30.2498 18.2715 31.5947 18.8151 30.7979 19.6562C30.0006 20.4975 28.2562 21.4875 27.6582 23.1699C27.0602 24.8525 25.7652 23.7141 26.5127 22.0811C27.2601 20.4483 28.2062 19.4095 27.8574 19.3105C27.5067 19.2135 23.1235 23.0215 21.5791 23.0215C20.0344 23.0215 26.1635 18.0729 25.416 18.0234C24.7674 17.9805 21.3095 17.6016 21.0215 16.9854C21.0468 17.0833 21.0672 17.1769 21.0801 17.2656C21.2761 18.6212 20.5903 21.5747 18.9238 22.7852C17.2573 23.9955 18.3352 20.2676 18.5312 19.0088C18.8025 17.2665 17.31 16.4048 16.8164 16.2979C16.3232 16.1914 15.29 18.8358 15.0449 19.8525C14.7998 20.8692 15.5412 24.0814 14.4629 25.7383C13.7571 26.8228 12.3555 27.5779 12.3555 26.416C12.3557 25.2543 13.3845 24.8376 13.1885 23.5596C12.9434 21.9622 12.5024 21.1388 12.6494 19.0088C12.7965 16.8786 13.4829 15.0387 14.1201 13.9736C14.7573 12.9083 16.1786 8.55238 15.542 7.63184C14.9048 6.71197 13.4338 7.09899 12.3555 7.8252C11.2771 8.55141 9.95343 8.2609 9.36523 7.8252C9.1178 7.64177 8.98451 7.32132 9.00293 7.0332C8.90626 7.04751 8.80631 7.06958 8.70312 7.10547C7.60625 7.48733 7.45583 11.0195 7.80469 12.0703C8.15372 13.1205 13.6632 17.1331 11.1465 16.8926C9.27901 16.7138 6.3602 13.6469 6.35938 14.5527C6.35938 15.4598 7.85543 16.606 8.70312 18.8975C9.55068 21.1888 8.20359 21.4274 7.80469 20.4727C7.40568 19.5179 6.35863 18.3246 5.26172 17.2744C3.26811 15.3657 3.5664 12.0078 3.56641 9.34961C3.56641 8.34708 2.81846 8.53837 1.9209 9.49316C1.02329 10.4476 -0.522241 10.3037 0.175781 9.11035C0.87385 7.91699 1.72191 6.81943 3.26758 6.05566C4.81324 5.29191 5.81042 5.38696 6.80762 5.48242C7.80483 5.57789 8.40338 5.05271 9.25098 5.00488C10.0987 4.95713 10.9467 5.24406 11.4453 5.62598C11.5536 5.70895 11.6583 5.83545 11.748 5.9834C12.4269 5.58588 13.1761 5.09528 14.1201 5.01758ZM25.0645 8.09766C22.9568 7.75876 21.9138 6.61506 21.2275 7.8252C20.5413 9.03554 19.1201 11.4565 19.1201 12.4248C19.1203 13.3177 20.6173 15.528 21.0049 16.9297C20.9936 16.8523 21.0301 16.7718 21.1309 16.6875C22.0777 15.8957 25.0168 13.6194 26.2129 11.8379C27.4088 10.0563 27.1973 9.32889 26.917 8.82715C26.8002 8.61898 26.2426 8.37419 25.5742 8.14551C25.4185 8.14182 25.2487 8.12729 25.0645 8.09766ZM29 2C30.1046 2 31 2.89543 31 4C31 5.10457 30.1046 6 29 6C27.8954 6 27 5.10457 27 4C27 2.89543 27.8954 2 29 2ZM7 1C8.10457 1 9 1.67157 9 2.5C9 3.32843 8.10457 4 7 4C5.89543 4 5 3.32843 5 2.5C5 1.67157 5.89543 1 7 1ZM18.5 0C19.8807 0 21 0.895431 21 2C21 3.10457 19.8807 4 18.5 4C17.1193 4 16 3.10457 16 2C16 0.895431 17.1193 0 18.5 0Z" fill="white"/>
<path d="M48.7861 19.249C47.7754 19.249 46.9087 19.0244 46.186 18.5752C45.4634 18.1211 44.9067 17.479 44.5161 16.6489C44.1304 15.8188 43.9375 14.8423 43.9375 13.7192V13.7046C43.9375 12.5718 44.1328 11.5928 44.5234 10.7676C44.9189 9.94238 45.478 9.30518 46.2007 8.85596C46.9282 8.40674 47.79 8.18213 48.7861 8.18213C49.7871 8.18213 50.6489 8.40674 51.3716 8.85596C52.0991 9.30518 52.6582 9.94482 53.0488 10.7749C53.4395 11.6001 53.6348 12.5767 53.6348 13.7046V13.7192C53.6348 14.8423 53.4395 15.8188 53.0488 16.6489C52.6631 17.4741 52.1064 18.1138 51.3789 18.5679C50.6562 19.022 49.792 19.249 48.7861 19.249ZM48.7861 18.0332C49.5088 18.0332 50.1313 17.855 50.6538 17.4985C51.1763 17.1421 51.5791 16.6416 51.8623 15.9971C52.1455 15.3477 52.2871 14.5884 52.2871 13.7192V13.7046C52.2871 12.8257 52.1455 12.064 51.8623 11.4194C51.5791 10.7749 51.1763 10.2769 50.6538 9.92529C50.1313 9.57373 49.5088 9.39795 48.7861 9.39795C48.0684 9.39795 47.4482 9.57373 46.9258 9.92529C46.4033 10.2769 45.998 10.7749 45.71 11.4194C45.4268 12.064 45.2852 12.8257 45.2852 13.7046V13.7192C45.2852 14.5884 45.4243 15.3477 45.7026 15.9971C45.981 16.6416 46.3813 17.1421 46.9038 17.4985C47.4263 17.855 48.0537 18.0332 48.7861 18.0332ZM55.3088 21.6367V11.1045H56.5832V12.3643H56.7004C56.8615 12.0713 57.0642 11.8223 57.3083 11.6172C57.5524 11.4072 57.8308 11.2461 58.1433 11.1338C58.4558 11.0215 58.7951 10.9653 59.1613 10.9653C59.8303 10.9653 60.4113 11.1362 60.9045 11.478C61.4025 11.8149 61.7883 12.2886 62.0617 12.8989C62.3352 13.5093 62.4719 14.2246 62.4719 15.0449V15.0596C62.4719 15.8848 62.3352 16.6025 62.0617 17.2129C61.7883 17.8232 61.4025 18.2969 60.9045 18.6338C60.4113 18.9707 59.8303 19.1392 59.1613 19.1392C58.8 19.1392 58.4582 19.083 58.1359 18.9707C57.8186 18.8535 57.5354 18.6924 57.2863 18.4873C57.0422 18.2822 56.8469 18.0381 56.7004 17.7549H56.5832V21.6367H55.3088ZM58.8684 18.0112C59.3518 18.0112 59.7644 17.894 60.1062 17.6597C60.4479 17.4204 60.7092 17.0811 60.8898 16.6416C61.0754 16.1973 61.1682 15.6699 61.1682 15.0596V15.0449C61.1682 14.4297 61.0754 13.9023 60.8898 13.4629C60.7092 13.0234 60.4479 12.6865 60.1062 12.4521C59.7644 12.2129 59.3518 12.0933 58.8684 12.0933C58.3898 12.0933 57.9772 12.2129 57.6306 12.4521C57.2839 12.6914 57.0178 13.0308 56.8322 13.4702C56.6467 13.9097 56.5539 14.4346 56.5539 15.0449V15.0596C56.5539 15.665 56.6467 16.1899 56.8322 16.6343C57.0178 17.0737 57.2839 17.4131 57.6306 17.6523C57.9772 17.8916 58.3898 18.0112 58.8684 18.0112ZM67.2367 19.1392C66.4848 19.1392 65.8378 18.9731 65.2958 18.6411C64.7587 18.3091 64.3437 17.8403 64.0507 17.2349C63.7626 16.6245 63.6186 15.9067 63.6186 15.0815V15.0742C63.6186 14.2588 63.7626 13.5435 64.0507 12.9282C64.3437 12.313 64.7563 11.832 65.2885 11.4854C65.8207 11.1387 66.4433 10.9653 67.1562 10.9653C67.8739 10.9653 68.4892 11.1313 69.0019 11.4634C69.5194 11.7954 69.9149 12.2593 70.1884 12.855C70.4667 13.4458 70.6059 14.1343 70.6059 14.9204V15.4185H64.2777V14.4004H69.954L69.3241 15.3306V14.8252C69.3241 14.2051 69.2313 13.6948 69.0458 13.2944C68.8603 12.894 68.6039 12.5962 68.2768 12.4009C67.9496 12.2007 67.5736 12.1006 67.1488 12.1006C66.724 12.1006 66.3432 12.2056 66.0063 12.4155C65.6742 12.6206 65.4105 12.9258 65.2152 13.3311C65.0199 13.7363 64.9223 14.2344 64.9223 14.8252V15.3306C64.9223 15.8921 65.0175 16.373 65.2079 16.7734C65.3983 17.1689 65.6693 17.4741 66.0209 17.689C66.3725 17.8989 66.7875 18.0039 67.266 18.0039C67.6225 18.0039 67.9325 17.9551 68.1962 17.8574C68.4599 17.7598 68.6771 17.6353 68.848 17.4839C69.0189 17.3325 69.1386 17.1787 69.2069 17.0225L69.2362 16.9565H70.5106L70.496 17.0151C70.4276 17.2837 70.3056 17.5449 70.1298 17.7988C69.9589 18.0479 69.7367 18.2749 69.4633 18.48C69.1898 18.6802 68.8651 18.8413 68.4892 18.9634C68.1181 19.0806 67.7006 19.1392 67.2367 19.1392ZM72.1334 19V11.1045H73.4078V12.291H73.525C73.7252 11.8711 74.0133 11.5464 74.3893 11.3169C74.7652 11.0825 75.2437 10.9653 75.8248 10.9653C76.7135 10.9653 77.3946 11.2192 77.8683 11.7271C78.3468 12.23 78.586 12.9502 78.586 13.8877V19H77.3116V14.1953C77.3116 13.4824 77.1603 12.9551 76.8575 12.6133C76.5597 12.2666 76.0958 12.0933 75.4659 12.0933C75.046 12.0933 74.6822 12.1836 74.3746 12.3643C74.067 12.5449 73.8277 12.8013 73.6568 13.1333C73.4908 13.4653 73.4078 13.8633 73.4078 14.3271V19H72.1334ZM80.5164 19V7.96973H81.7908V19H80.5164ZM83.8164 19V11.1045H85.0908V19H83.8164ZM84.4609 9.58105C84.2217 9.58105 84.0142 9.49561 83.8384 9.32471C83.6675 9.14893 83.582 8.94141 83.582 8.70215C83.582 8.45801 83.6675 8.25049 83.8384 8.07959C84.0142 7.90869 84.2217 7.82324 84.4609 7.82324C84.7051 7.82324 84.9126 7.90869 85.0835 8.07959C85.2544 8.25049 85.3398 8.45801 85.3398 8.70215C85.3398 8.94141 85.2544 9.14893 85.0835 9.32471C84.9126 9.49561 84.7051 9.58105 84.4609 9.58105ZM87.5705 19V12.1592H86.2595V11.1045H87.5705V10.2256C87.5705 9.69824 87.656 9.26367 87.8269 8.92188C88.0026 8.5752 88.2614 8.31885 88.6032 8.15283C88.945 7.98193 89.3649 7.89648 89.863 7.89648C90.0192 7.89648 90.1657 7.90381 90.3024 7.91846C90.444 7.92822 90.5808 7.94531 90.7126 7.96973V8.98779C90.6345 8.97314 90.5441 8.96338 90.4416 8.9585C90.3391 8.95361 90.2316 8.95117 90.1193 8.95117C89.6652 8.95117 89.3381 9.06104 89.1379 9.28076C88.9426 9.50049 88.8449 9.82764 88.8449 10.2622V11.1045H90.6394V12.1592H88.8449V19H87.5705ZM94.9281 19.1392C94.1762 19.1392 93.5292 18.9731 92.9872 18.6411C92.4501 18.3091 92.0351 17.8403 91.7421 17.2349C91.454 16.6245 91.31 15.9067 91.31 15.0815V15.0742C91.31 14.2588 91.454 13.5435 91.7421 12.9282C92.0351 12.313 92.4477 11.832 92.9799 11.4854C93.5121 11.1387 94.1347 10.9653 94.8476 10.9653C95.5653 10.9653 96.1806 11.1313 96.6933 11.4634C97.2108 11.7954 97.6063 12.2593 97.8798 12.855C98.1581 13.4458 98.2973 14.1343 98.2973 14.9204V15.4185H91.9691V14.4004H97.6454L97.0155 15.3306V14.8252C97.0155 14.2051 96.9228 13.6948 96.7372 13.2944C96.5517 12.894 96.2953 12.5962 95.9682 12.4009C95.641 12.2007 95.265 12.1006 94.8402 12.1006C94.4154 12.1006 94.0346 12.2056 93.6977 12.4155C93.3656 12.6206 93.102 12.9258 92.9066 13.3311C92.7113 13.7363 92.6137 14.2344 92.6137 14.8252V15.3306C92.6137 15.8921 92.7089 16.373 92.8993 16.7734C93.0897 17.1689 93.3607 17.4741 93.7123 17.689C94.0639 17.8989 94.4789 18.0039 94.9574 18.0039C95.3139 18.0039 95.6239 17.9551 95.8876 17.8574C96.1513 17.7598 96.3686 17.6353 96.5395 17.4839C96.7104 17.3325 96.83 17.1787 96.8983 17.0225L96.9276 16.9565H98.202L98.1874 17.0151C98.119 17.2837 97.997 17.5449 97.8212 17.7988C97.6503 18.0479 97.4281 18.2749 97.1547 18.48C96.8812 18.6802 96.5565 18.8413 96.1806 18.9634C95.8095 19.0806 95.392 19.1392 94.9281 19.1392Z" fill="white"/>
<path d="M105.472 19V18.0918L108.929 14.2246C109.369 13.7363 109.71 13.3335 109.955 13.0161C110.204 12.6987 110.377 12.4106 110.475 12.1519C110.577 11.8882 110.628 11.6025 110.628 11.2949V11.2803C110.628 10.9092 110.55 10.5771 110.394 10.2842C110.243 9.99121 110.023 9.75928 109.735 9.58838C109.447 9.41748 109.103 9.33203 108.702 9.33203C108.297 9.33203 107.94 9.41992 107.633 9.5957C107.33 9.7666 107.093 10.0083 106.922 10.3208C106.756 10.6284 106.673 10.9897 106.673 11.4048L106.666 11.4194L105.406 11.4121L105.399 11.4048C105.404 10.7798 105.55 10.2256 105.838 9.74219C106.131 9.25391 106.532 8.87305 107.04 8.59961C107.552 8.32129 108.136 8.18213 108.79 8.18213C109.396 8.18213 109.938 8.31152 110.416 8.57031C110.895 8.82422 111.273 9.17334 111.551 9.61768C111.834 10.062 111.976 10.5698 111.976 11.1411V11.1558C111.976 11.5562 111.908 11.9419 111.771 12.313C111.634 12.6841 111.395 13.0967 111.053 13.5508C110.711 14 110.23 14.5542 109.61 15.2134L106.966 18.0332L107.296 17.4253V18.0332L106.974 17.8135H112.145V19H105.472ZM117.715 19.249C116.934 19.249 116.265 19.0244 115.708 18.5752C115.156 18.126 114.732 17.4888 114.434 16.6636C114.136 15.8335 113.987 14.8521 113.987 13.7192V13.7046C113.987 12.5718 114.136 11.5928 114.434 10.7676C114.732 9.94238 115.156 9.30518 115.708 8.85596C116.265 8.40674 116.934 8.18213 117.715 8.18213C118.496 8.18213 119.165 8.40674 119.722 8.85596C120.279 9.30518 120.706 9.94238 121.004 10.7676C121.306 11.5928 121.458 12.5718 121.458 13.7046V13.7192C121.458 14.8521 121.306 15.8335 121.004 16.6636C120.706 17.4888 120.279 18.126 119.722 18.5752C119.165 19.0244 118.496 19.249 117.715 19.249ZM117.715 18.0991C118.223 18.0991 118.655 17.9209 119.011 17.5645C119.373 17.208 119.649 16.7026 119.839 16.0483C120.034 15.394 120.132 14.6177 120.132 13.7192V13.7046C120.132 12.8062 120.034 12.0322 119.839 11.3828C119.649 10.7285 119.373 10.2256 119.011 9.87402C118.655 9.51758 118.223 9.33936 117.715 9.33936C117.212 9.33936 116.78 9.51758 116.419 9.87402C116.062 10.2256 115.789 10.7285 115.598 11.3828C115.408 12.0322 115.313 12.8062 115.313 13.7046V13.7192C115.313 14.6177 115.408 15.394 115.598 16.0483C115.789 16.7026 116.062 17.208 116.419 17.5645C116.78 17.9209 117.212 18.0991 117.715 18.0991ZM123.469 19V18.0918L126.926 14.2246C127.365 13.7363 127.707 13.3335 127.951 13.0161C128.2 12.6987 128.373 12.4106 128.471 12.1519C128.574 11.8882 128.625 11.6025 128.625 11.2949V11.2803C128.625 10.9092 128.547 10.5771 128.391 10.2842C128.239 9.99121 128.019 9.75928 127.731 9.58838C127.443 9.41748 127.099 9.33203 126.699 9.33203C126.293 9.33203 125.937 9.41992 125.629 9.5957C125.327 9.7666 125.09 10.0083 124.919 10.3208C124.753 10.6284 124.67 10.9897 124.67 11.4048L124.663 11.4194L123.403 11.4121L123.395 11.4048C123.4 10.7798 123.547 10.2256 123.835 9.74219C124.128 9.25391 124.528 8.87305 125.036 8.59961C125.549 8.32129 126.132 8.18213 126.787 8.18213C127.392 8.18213 127.934 8.31152 128.413 8.57031C128.891 8.82422 129.269 9.17334 129.548 9.61768C129.831 10.062 129.973 10.5698 129.973 11.1411V11.1558C129.973 11.5562 129.904 11.9419 129.767 12.313C129.631 12.6841 129.392 13.0967 129.05 13.5508C128.708 14 128.227 14.5542 127.607 15.2134L124.963 18.0332L125.292 17.4253V18.0332L124.97 17.8135H130.141V19H123.469ZM135.748 19.249C135.094 19.249 134.51 19.1196 133.998 18.8608C133.49 18.6021 133.082 18.2505 132.775 17.8062C132.467 17.3569 132.286 16.8516 132.233 16.29L132.225 16.2095H133.492L133.5 16.2681C133.544 16.605 133.666 16.9126 133.866 17.1909C134.071 17.4644 134.335 17.6816 134.657 17.8428C134.984 18.0039 135.353 18.0845 135.763 18.0845C136.227 18.0845 136.634 17.9819 136.986 17.7769C137.342 17.5669 137.618 17.2788 137.814 16.9126C138.014 16.5464 138.114 16.1265 138.114 15.6528V15.6382C138.114 15.1694 138.014 14.7544 137.814 14.3931C137.613 14.0269 137.337 13.7412 136.986 13.5361C136.639 13.3311 136.239 13.2285 135.785 13.2285C135.433 13.2285 135.111 13.2822 134.818 13.3896C134.525 13.4971 134.264 13.6582 134.034 13.873C133.946 13.9609 133.861 14.0562 133.778 14.1587C133.7 14.2612 133.627 14.376 133.558 14.5029H132.416L132.965 8.43115H138.817V9.61035H134.005L133.653 13.1846H133.771C133.927 12.9453 134.117 12.7451 134.342 12.584C134.571 12.4229 134.828 12.3008 135.111 12.2178C135.394 12.1299 135.694 12.0859 136.012 12.0859C136.671 12.0859 137.254 12.2397 137.762 12.5474C138.275 12.8501 138.675 13.2676 138.963 13.7998C139.256 14.3271 139.403 14.9326 139.403 15.6162V15.6309C139.403 16.3389 139.247 16.9663 138.934 17.5132C138.622 18.0552 138.19 18.48 137.638 18.7876C137.091 19.0952 136.461 19.249 135.748 19.249Z" fill="white"/>
<path d="M151.12 16.7844C150.184 16.7844 149.443 16.4911 148.898 15.9044C148.359 15.3178 148.089 14.5178 148.089 13.5044V13.4956C148.089 12.4822 148.359 11.6822 148.898 11.0956C149.443 10.5089 150.181 10.2156 151.111 10.2156C151.615 10.2156 152.068 10.3133 152.471 10.5089C152.874 10.7044 153.203 10.9741 153.458 11.3178C153.713 11.6556 153.864 12.0467 153.911 12.4911V12.5444H152.711V12.5178C152.634 12.1681 152.45 11.8867 152.16 11.6733C151.87 11.4541 151.52 11.3444 151.111 11.3444C150.566 11.3444 150.133 11.537 149.813 11.9222C149.499 12.3015 149.342 12.8259 149.342 13.4956V13.5044C149.342 14.1681 149.499 14.6926 149.813 15.0778C150.133 15.463 150.569 15.6556 151.12 15.6556C151.529 15.6556 151.876 15.5548 152.16 15.3533C152.444 15.1519 152.625 14.8852 152.702 14.5533L152.711 14.5178H153.911V14.5711C153.858 15.0096 153.707 15.3948 153.458 15.7267C153.209 16.0585 152.883 16.3193 152.48 16.5089C152.083 16.6926 151.63 16.7844 151.12 16.7844ZM156.827 13.4689C156.827 12.657 156.679 11.9015 156.382 11.2022C156.086 10.497 155.674 9.88074 155.147 9.35333C154.619 8.82593 154.003 8.41407 153.298 8.11778C152.599 7.82148 151.843 7.67333 151.031 7.67333H150.969C150.157 7.67333 149.399 7.82148 148.693 8.11778C147.994 8.41407 147.381 8.82593 146.853 9.35333C146.326 9.88074 145.914 10.497 145.618 11.2022C145.321 11.9015 145.173 12.657 145.173 13.4689V13.5311C145.173 14.343 145.321 15.1015 145.618 15.8067C145.914 16.5059 146.326 17.1193 146.853 17.6467C147.381 18.1741 147.994 18.5859 148.693 18.8822C149.399 19.1785 150.157 19.3267 150.969 19.3267H151.031C151.843 19.3267 152.599 19.1785 153.298 18.8822C154.003 18.5859 154.619 18.1741 155.147 17.6467C155.674 17.1193 156.086 16.5059 156.382 15.8067C156.679 15.1015 156.827 14.343 156.827 13.5311V13.4689ZM158 13.4689V13.5311C158 14.5089 157.822 15.4185 157.467 16.26C157.111 17.1015 156.613 17.8422 155.973 18.4822C155.339 19.1163 154.601 19.6111 153.76 19.9667C152.919 20.3222 152.009 20.5 151.031 20.5H150.969C149.991 20.5 149.081 20.3222 148.24 19.9667C147.399 19.6111 146.658 19.1163 146.018 18.4822C145.384 17.8422 144.889 17.1015 144.533 16.26C144.178 15.4185 144 14.5089 144 13.5311V13.4689C144 12.4911 144.178 11.5815 144.533 10.74C144.889 9.89852 145.384 9.16074 146.018 8.52667C146.658 7.88667 147.399 7.38889 148.24 7.03333C149.081 6.67778 149.991 6.5 150.969 6.5H151.031C152.009 6.5 152.919 6.67778 153.76 7.03333C154.601 7.38889 155.339 7.88667 155.973 8.52667C156.613 9.16074 157.111 9.89852 157.467 10.74C157.822 11.5815 158 12.4911 158 13.4689Z" fill="white"/>
</svg>
