<svg width="694" height="151" viewBox="0 0 694 151" fill="none" xmlns="http://www.w3.org/2000/svg">
<g style="mix-blend-mode:difference">
<path fill-rule="evenodd" clip-rule="evenodd" d="M362.356 41.2828C383.086 41.2828 395.382 55.9907 395.382 80.7918C395.382 105.305 383.801 119.868 364.071 119.868C352.777 119.868 343.626 114.822 339.48 106.459H339.195L339.91 118.859V149.284H329.474V43.1582H341.912L339.623 53.3948H339.91C343.627 45.7529 352.062 41.2829 362.356 41.2828ZM361.641 49.5016C347.916 49.5017 339.91 61.1818 339.91 80.7918C339.91 100.114 348.345 111.649 362.642 111.649C376.51 111.649 384.66 100.114 384.66 80.7918C384.66 61.1817 376.081 49.5016 361.641 49.5016Z" fill="white"/>
<path fill-rule="evenodd" clip-rule="evenodd" d="M273.667 13.4532C301.832 13.4532 320.275 34.5064 320.275 66.8058C320.275 98.9609 301.832 120.013 273.667 120.013C245.645 120.013 227.345 98.9609 227.345 66.8058C227.345 34.5064 245.645 13.4532 273.667 13.4532ZM273.667 23.4037C252.507 23.4037 238.497 40.5625 238.497 66.8058C238.497 93.0489 252.507 110.208 273.667 110.208C294.969 110.208 309.123 93.0489 309.123 66.8058C309.123 40.5625 294.969 23.4037 273.667 23.4037Z" fill="white"/>
<path fill-rule="evenodd" clip-rule="evenodd" d="M436.354 41.4279C456.799 41.4279 468.951 54.4047 468.951 76.4661V82.2346H414.336C414.765 100.835 423.344 111.649 437.498 111.649C448.078 111.649 455.798 105.449 457.942 94.7792H468.38C465.52 110.641 453.796 120.013 436.925 120.013C415.909 120.013 403.471 105.16 403.471 80.3592C403.471 55.8465 415.624 41.4279 436.354 41.4279ZM436.354 49.7905C424.059 49.7905 416.195 58.7307 414.623 74.5921H458.229C457.943 58.875 449.936 49.7905 436.354 49.7905Z" fill="white"/>
<path fill-rule="evenodd" clip-rule="evenodd" d="M661.403 41.4279C681.847 41.428 694 54.4047 694 76.4661V82.2346H639.385C639.814 100.835 648.393 111.649 662.547 111.649C673.127 111.649 680.847 105.449 682.991 94.7792H693.429C690.569 110.641 678.845 120.013 661.974 120.013C640.958 120.013 628.52 105.16 628.52 80.3592C628.52 55.8465 640.673 41.4279 661.403 41.4279ZM661.403 49.7905C649.108 49.7905 641.244 58.7307 639.672 74.5921H683.277C682.992 58.875 674.985 49.7905 661.403 49.7905Z" fill="white"/>
<path d="M512.23 41.4279C528.815 41.4279 538.537 52.0974 538.537 70.1213V118.138H528.101V71.8529C528.101 58.2987 521.38 50.3668 510.229 50.3668C497.362 50.367 489.928 60.6059 489.928 77.9089V118.138H479.49V43.1582H490.499L488.784 55.4139H489.213C492.931 46.6184 501.508 41.428 512.23 41.4279Z" fill="white"/>
<path d="M560.888 118.138H550.45V12.0117H560.888V118.138Z" fill="white"/>
<path d="M584.622 118.138H574.186V43.1582H584.622V118.138Z" fill="white"/>
<path d="M621.399 12.0117C624.544 12.0117 627.976 12.7323 630.549 13.8857V22.826C627.976 21.5284 624.831 20.8083 621.972 20.8082C613.394 20.8082 608.818 25.9983 608.818 36.2357V43.1582H626.117V51.8096H608.818V118.138H598.382V36.0919C598.382 20.2308 606.244 12.0118 621.399 12.0117Z" fill="white"/>
<path d="M580.047 23.3332C584.329 23.3332 587.801 26.818 587.801 31.1167C587.801 35.4154 584.329 38.9002 580.047 38.9002C575.764 38.9002 572.293 35.4154 572.293 31.1167C572.293 26.818 575.764 23.3332 580.047 23.3332Z" fill="white"/>
<path d="M580.328 24.0225C584.576 24.0225 588.02 27.4795 588.02 31.7441C588.02 36.0086 584.576 39.4656 580.328 39.4656C576.079 39.4656 572.635 36.0086 572.635 31.7441C572.635 27.4795 576.079 24.0225 580.328 24.0225Z" fill="white"/>
<path d="M76.063 27.5518C85.7819 26.7362 91.9635 31.3416 99.1587 31.3418C106.354 31.3418 109.54 27.5519 119.259 27.5518C124.46 27.5518 130.006 29.5681 134.742 31.7334C138.206 29.8569 142.851 28.4715 146.614 29.5459C156.329 32.3206 164.315 32.9814 170.209 31.6279C179.257 29.551 190.737 41.7475 194.844 48.8613C198.951 55.9752 196.212 64.4567 181.702 52.1445C167.192 39.8331 192.83 89.0017 193.749 92.3662C195.39 98.3851 176.503 97.0178 173.489 97.0176C170.477 97.0176 177.869 100.027 173.489 104.679C169.108 109.33 159.525 114.803 156.24 124.105C152.954 133.408 145.836 127.115 149.943 118.086C154.049 109.057 159.25 103.312 157.334 102.764C155.416 102.218 131.325 123.283 122.837 123.284C114.351 123.284 148.022 95.9258 143.919 95.6494C139.813 95.3758 115.172 92.6394 120.374 88.2617C125.576 83.8839 141.729 71.2974 148.3 61.4473C154.871 51.5976 153.706 47.5788 152.166 44.8047C151.64 43.8582 149.478 42.7653 146.684 41.7031C145.717 43.9758 142.509 45.8582 136.344 44.8477C124.736 42.9444 118.989 36.5237 115.209 43.3203C111.43 50.1173 103.6 63.7119 103.6 69.1494C103.6 74.5872 113.32 88.7244 114.4 96.3369C115.48 103.949 111.7 120.534 102.521 127.331C93.3422 134.127 99.2808 113.194 100.361 106.125C101.856 96.3373 93.6281 91.4975 90.9116 90.8994C88.195 90.3028 82.5048 105.152 81.1548 110.861C79.805 116.571 83.8921 134.612 77.9526 143.916C74.065 150.006 66.3435 154.247 66.3433 147.723C66.3433 141.198 72.0129 138.859 70.9331 131.682C69.5832 122.71 67.1535 118.088 67.9634 106.125C68.7733 94.1625 72.5533 83.831 76.063 77.8496C79.5727 71.8683 87.4014 47.3996 83.8921 42.2334C80.3823 37.0679 72.2827 39.2422 66.3433 43.3203C60.4038 47.3982 53.1142 45.7671 49.8745 43.3203C49.5282 43.0586 49.2249 42.7449 48.9624 42.3994C48.3665 42.4743 47.7499 42.6208 47.1079 42.8555C41.1698 45.0262 40.3602 65.1051 42.2495 71.0752C44.1391 77.045 73.9618 99.8513 60.3335 98.4814C50.2236 97.4651 34.4219 80.0308 34.4214 85.1855C34.4214 90.3412 42.5193 96.8542 47.1079 109.879C51.6961 122.903 44.4089 124.26 42.2495 118.833C40.0902 113.406 34.422 106.622 28.4839 100.652C17.6919 89.803 19.3062 70.7175 19.3062 55.6084C19.306 49.9105 15.2573 50.9961 10.3989 56.4229C5.54046 61.8497 -2.82694 61.0355 0.95166 54.252C4.73047 47.4683 9.31966 41.2273 17.687 36.8857C26.0541 32.5444 31.4529 33.0872 36.8511 33.6299C42.2491 34.1723 45.4882 31.1874 50.0767 30.916C54.3217 30.665 58.566 32.0407 61.3149 33.9668C65.5108 31.6598 70.0683 28.055 76.063 27.5518ZM38.4604 8.5791C43.6525 8.57921 47.8616 12.8047 47.8618 18.0166C47.8618 23.2287 43.6526 27.454 38.4604 27.4541C33.2683 27.4539 29.0591 23.2287 29.0591 18.0166C29.0593 12.8047 33.2685 8.57931 38.4604 8.5791ZM160.68 8.5791C166.344 8.57932 170.936 12.8048 170.936 18.0166C170.936 23.2287 166.344 27.4539 160.68 27.4541C155.016 27.4541 150.424 23.2288 150.424 18.0166C150.425 12.8046 155.016 8.57915 160.68 8.5791ZM99.9976 0C107.078 0.000199185 112.818 5.76182 112.818 12.8691C112.818 19.9765 107.078 25.7381 99.9976 25.7383C92.9173 25.7381 87.1772 19.9765 87.1772 12.8691C87.1773 5.76182 92.9174 0.000204881 99.9976 0Z" fill="white"/>
</g>
</svg>
