<svg width="99" height="20" viewBox="0 0 99 20" fill="none" xmlns="http://www.w3.org/2000/svg">
<rect x="0.354935" y="0.354935" width="18.6817" height="18.6817" rx="3.79436" fill="black"/>
<rect x="0.354935" y="0.354935" width="18.6817" height="18.6817" rx="3.79436" stroke="black" stroke-width="0.70987"/>
<path d="M9.03952 6.88953C9.25791 6.60516 9.59608 6.43848 9.95462 6.43848H9.99383C10.5036 6.43848 10.9169 6.85174 10.9169 7.36153V13.0416L15.6414 6.88953C15.8598 6.60516 16.198 6.43848 16.5565 6.43848H16.5957C17.1055 6.43848 17.5188 6.85174 17.5188 7.36153V16.6045C17.5188 17.1143 17.1055 17.5276 16.5957 17.5276H2.74262C1.97713 17.5276 1.5443 16.6495 2.01054 16.0423L9.03952 6.88953Z" fill="white"/>
<path d="M28.8172 9.03171C28.9206 8.62283 29.0649 8.25485 29.2501 7.92774C29.4353 7.59824 29.6542 7.31804 29.9067 7.08714C30.1593 6.85625 30.4419 6.67827 30.7545 6.5532C31.0696 6.42813 31.4075 6.3656 31.7683 6.3656C32.0954 6.3656 32.4057 6.4125 32.6991 6.5063C32.9925 6.6001 33.2631 6.73479 33.5108 6.91036C33.761 7.08594 33.9859 7.2988 34.1855 7.54893C34.3875 7.79666 34.5583 8.07566 34.6978 8.38593C34.8373 8.69619 34.9443 9.03412 35.0189 9.3997C35.0958 9.76528 35.1343 10.1513 35.1343 10.5578C35.1343 10.9643 35.0958 11.3503 35.0189 11.7159C34.9443 12.0814 34.8373 12.4206 34.6978 12.7332C34.5583 13.0435 34.3875 13.3237 34.1855 13.5738C33.9859 13.8216 33.761 14.0332 33.5108 14.2088C33.2631 14.3844 32.9925 14.5191 32.6991 14.6129C32.4057 14.7067 32.0954 14.7536 31.7683 14.7536C31.4075 14.7536 31.0696 14.691 30.7545 14.566C30.4419 14.4409 30.1593 14.2629 29.9067 14.032C29.6542 13.8011 29.4353 13.5209 29.2501 13.1914C29.0649 12.8619 28.9206 12.4927 28.8172 12.0839V14.5371H27.356V3.85822H28.8172V9.03171ZM28.8172 10.5578C28.8172 11.0124 28.8725 11.42 28.9831 11.7808C29.0962 12.1392 29.2585 12.4434 29.4702 12.6936C29.6818 12.9437 29.9392 13.1361 30.2422 13.2708C30.5453 13.4031 30.888 13.4692 31.2704 13.4692C31.6601 13.4692 32.004 13.4067 32.3022 13.2816C32.6029 13.1541 32.8542 12.9677 33.0563 12.7224C33.2583 12.4747 33.411 12.1704 33.5144 11.8097C33.6203 11.4465 33.6732 11.0292 33.6732 10.5578C33.6732 10.0864 33.6203 9.67028 33.5144 9.30951C33.411 8.94633 33.2583 8.64208 33.0563 8.39675C32.8542 8.15142 32.6029 7.96623 32.3022 7.84116C32.004 7.71369 31.6601 7.64995 31.2704 7.64995C30.888 7.64995 30.5453 7.71609 30.2422 7.84837C29.9392 7.98066 29.6818 8.17187 29.4702 8.422C29.2585 8.67214 29.0962 8.97759 28.9831 9.33837C28.8725 9.69674 28.8172 10.1032 28.8172 10.5578ZM42.9547 6.58206L39.6609 15.0386C39.4949 15.4619 39.3013 15.8275 39.08 16.1353C38.8612 16.4432 38.6086 16.6969 38.3224 16.8966C38.0386 17.0986 37.7199 17.2477 37.3664 17.3439C37.0152 17.4401 36.6244 17.4882 36.1939 17.4882C36.076 17.4882 35.9618 17.4846 35.8511 17.4774C35.7405 17.4702 35.6335 17.4606 35.53 17.4485V16.1714C35.6575 16.1882 35.7754 16.2003 35.8836 16.2075C35.9942 16.2147 36.1001 16.2183 36.2011 16.2183C36.6821 16.2183 37.0741 16.1245 37.3772 15.9369C37.6802 15.7493 37.9075 15.4499 38.0591 15.0386L38.1601 14.7716L35.0033 6.58206H36.5186L38.9826 13.2059L41.4756 6.58206H42.9547Z" fill="white"/>
<path d="M58.2713 4.219V14.5371H56.756V5.49613L53.3034 14.5371H51.1749L47.7656 5.49253V14.5371H46.2864V4.219H48.8587L52.2608 13.2924L55.7062 4.219H58.2713ZM59.0944 9.37805C59.0944 8.84411 59.1473 8.34143 59.2532 7.87002C59.359 7.39621 59.5117 6.96087 59.7113 6.56402C59.9134 6.16477 60.1575 5.8076 60.4437 5.49253C60.7299 5.17505 61.0534 4.90687 61.4142 4.688C61.775 4.46673 62.1694 4.29716 62.5975 4.17931C63.0256 4.06146 63.4814 4.00253 63.9649 4.00253C64.4483 4.00253 64.9041 4.06146 65.3322 4.17931C65.7603 4.29716 66.1548 4.46673 66.5155 4.688C66.8763 4.90687 67.1998 5.17505 67.486 5.49253C67.7746 5.8076 68.0187 6.16477 68.2184 6.56402C68.418 6.96087 68.5707 7.39621 68.6766 7.87002C68.7848 8.34143 68.8389 8.84411 68.8389 9.37805C68.8389 9.90959 68.7848 10.4123 68.6766 10.8861C68.5707 11.3599 68.418 11.7964 68.2184 12.1957C68.0187 12.5925 67.7746 12.9497 67.486 13.2672C67.1998 13.5823 66.8763 13.8504 66.5155 14.0717C66.1548 14.2906 65.7603 14.4589 65.3322 14.5768C64.9041 14.6946 64.4483 14.7536 63.9649 14.7536C63.4814 14.7536 63.0256 14.6946 62.5975 14.5768C62.1694 14.4589 61.775 14.2906 61.4142 14.0717C61.0534 13.8504 60.7299 13.5823 60.4437 13.2672C60.1575 12.9497 59.9134 12.5925 59.7113 12.1957C59.5117 11.7964 59.359 11.3599 59.2532 10.8861C59.1473 10.4123 59.0944 9.90959 59.0944 9.37805ZM60.6097 9.37805C60.6097 9.99858 60.6854 10.5542 60.837 11.0448C60.9909 11.5355 61.2122 11.9516 61.5008 12.2931C61.7894 12.6322 62.1405 12.8932 62.5542 13.076C62.9703 13.2564 63.4405 13.3466 63.9649 13.3466C64.4892 13.3466 64.9582 13.2564 65.3719 13.076C65.788 12.8932 66.1403 12.6322 66.4289 12.2931C66.7176 11.9516 66.9388 11.5355 67.0928 11.0448C67.2467 10.5542 67.3237 9.99858 67.3237 9.37805C67.3237 8.75752 67.2467 8.20193 67.0928 7.71128C66.9388 7.22063 66.7176 6.80574 66.4289 6.46661C66.1403 6.12508 65.788 5.86412 65.3719 5.68374C64.9582 5.50094 64.4892 5.40955 63.9649 5.40955C63.4405 5.40955 62.9703 5.50094 62.5542 5.68374C62.1405 5.86412 61.7894 6.12508 61.5008 6.46661C61.2122 6.80574 60.9909 7.22063 60.837 7.71128C60.6854 8.20193 60.6097 8.75752 60.6097 9.37805ZM73.5308 4.00253C74.1465 4.00253 74.7045 4.0795 75.2047 4.23343C75.705 4.38736 76.1319 4.60743 76.4855 4.89364C76.8415 5.17986 77.1156 5.5286 77.3081 5.93988C77.5005 6.35117 77.5967 6.81416 77.5967 7.32886H76.1175C76.1175 7.02822 76.0538 6.75764 75.9263 6.51712C75.8012 6.27661 75.6244 6.07217 75.396 5.90381C75.1675 5.73304 74.8933 5.60196 74.5734 5.51056C74.2559 5.41917 73.9048 5.37347 73.5199 5.37347C73.3059 5.37347 73.0918 5.3891 72.8778 5.42037C72.6637 5.44923 72.4581 5.49493 72.2608 5.55747C72.066 5.61759 71.8844 5.69456 71.7161 5.78836C71.5477 5.88216 71.4022 5.9928 71.2795 6.12027C71.1569 6.24774 71.0595 6.39326 70.9873 6.55681C70.9176 6.71795 70.8827 6.89714 70.8827 7.09436C70.8827 7.35412 70.9452 7.56457 71.0703 7.72571C71.1954 7.88686 71.3733 8.01914 71.6042 8.12256C71.8351 8.22358 72.1153 8.30535 72.4448 8.36789C72.7743 8.43042 73.1435 8.49296 73.5524 8.55549L74.0864 8.63486C74.3052 8.66853 74.5277 8.70461 74.7538 8.74309C74.9823 8.77917 75.2084 8.82366 75.432 8.87658C75.6557 8.92709 75.8734 8.98962 76.085 9.06418C76.2967 9.13633 76.4963 9.22292 76.6839 9.32394C76.8739 9.42495 77.0471 9.54521 77.2034 9.68471C77.3622 9.8218 77.4981 9.98175 77.6111 10.1645C77.7241 10.3449 77.8119 10.5518 77.8745 10.7851C77.9394 11.016 77.9719 11.2781 77.9719 11.5716C77.9719 11.9275 77.9238 12.2546 77.8276 12.5529C77.7314 12.8487 77.5931 13.1145 77.4127 13.3502C77.2347 13.5859 77.0182 13.7915 76.7633 13.9671C76.5083 14.1427 76.2209 14.2894 75.901 14.4072C75.5812 14.5227 75.2324 14.6093 74.8548 14.667C74.4772 14.7247 74.0779 14.7536 73.657 14.7536C72.9643 14.7536 72.3438 14.6778 71.7954 14.5263C71.2471 14.3724 70.7817 14.1499 70.3993 13.8589C70.0192 13.5654 69.7282 13.2071 69.5262 12.7838C69.3241 12.358 69.2231 11.8746 69.2231 11.3334H70.7023C70.7023 11.6533 70.7708 11.9407 70.9079 12.1957C71.045 12.4482 71.2399 12.6635 71.4924 12.8415C71.7473 13.0171 72.0552 13.1517 72.416 13.2455C72.7792 13.3369 73.1856 13.3826 73.6354 13.3826C73.8927 13.3826 74.1417 13.367 74.3822 13.3357C74.6251 13.3045 74.8524 13.2564 75.064 13.1914C75.2757 13.1241 75.4681 13.0411 75.6413 12.9425C75.8169 12.8415 75.9672 12.7236 76.0923 12.5889C76.2173 12.4518 76.3147 12.2967 76.3845 12.1235C76.4542 11.9504 76.4891 11.7568 76.4891 11.5427C76.4891 11.3527 76.4602 11.1879 76.4025 11.0484C76.3472 10.9089 76.2666 10.7887 76.1608 10.6877C76.055 10.5842 75.9275 10.4977 75.7784 10.4279C75.6293 10.3582 75.4609 10.2992 75.2733 10.2511C75.0857 10.2006 74.8825 10.1573 74.6636 10.1212C74.4447 10.0828 74.2126 10.0443 73.9673 10.0058L73.2963 9.90478C73.0028 9.85908 72.7022 9.81098 72.3943 9.76047C72.0865 9.70756 71.7882 9.63901 71.4996 9.55483C71.2134 9.47065 70.9428 9.36603 70.6879 9.24096C70.4329 9.11589 70.2104 8.95835 70.0204 8.76835C69.8304 8.57593 69.6801 8.34624 69.5695 8.07927C69.4588 7.80989 69.4035 7.49241 69.4035 7.12683C69.4035 6.78289 69.4528 6.46661 69.5514 6.17799C69.6524 5.88938 69.7932 5.62962 69.9735 5.39872C70.1539 5.16783 70.3704 4.9658 70.6229 4.79263C70.8755 4.61705 71.1545 4.47154 71.4599 4.35609C71.7654 4.23824 72.0925 4.15045 72.4412 4.09273C72.7924 4.0326 73.1556 4.00253 73.5308 4.00253ZM79.9454 9.37805C79.9454 9.99858 80.0212 10.5542 80.1727 11.0448C80.3266 11.5355 80.5479 11.9516 80.8365 12.2931C81.1251 12.6322 81.4763 12.8932 81.89 13.076C82.3061 13.2564 82.7751 13.3466 83.297 13.3466C83.7203 13.3466 84.1039 13.2864 84.4479 13.1662C84.7942 13.0459 85.0985 12.8679 85.3606 12.6322C85.6252 12.3941 85.8453 12.1007 86.0208 11.7519C86.1988 11.4008 86.3323 10.9943 86.4213 10.5325H87.9365C87.8283 11.1915 87.6407 11.782 87.3737 12.3039C87.1092 12.8258 86.7773 13.2684 86.378 13.6316C85.9787 13.9947 85.5194 14.2725 84.9998 14.465C84.4803 14.6574 83.9115 14.7536 83.2934 14.7536C82.8124 14.7536 82.3578 14.6946 81.9297 14.5768C81.5016 14.4589 81.1071 14.2906 80.7463 14.0717C80.388 13.8504 80.0657 13.5823 79.7795 13.2672C79.4932 12.9497 79.2491 12.5925 79.0471 12.1957C78.8475 11.7964 78.6947 11.3599 78.5889 10.8861C78.4831 10.4123 78.4302 9.90959 78.4302 9.37805C78.4302 8.84411 78.4831 8.34143 78.5889 7.87002C78.6947 7.39621 78.8475 6.96087 79.0471 6.56402C79.2491 6.16477 79.4932 5.8076 79.7795 5.49253C80.0657 5.17505 80.388 4.90687 80.7463 4.688C81.1071 4.46673 81.5016 4.29716 81.9297 4.17931C82.3578 4.06146 82.8124 4.00253 83.2934 4.00253C83.9115 4.00253 84.4803 4.09874 84.9998 4.29115C85.5194 4.48356 85.9787 4.76136 86.378 5.12454C86.7773 5.48772 87.1092 5.93026 87.3737 6.45218C87.6407 6.9741 87.8283 7.56457 87.9365 8.22358H86.4213C86.3323 7.76179 86.1988 7.35652 86.0208 7.00777C85.8453 6.65662 85.6252 6.36319 85.3606 6.12749C85.0985 5.88938 84.7942 5.71019 84.4479 5.58993C84.1039 5.46968 83.7203 5.40955 83.297 5.40955C82.7751 5.40955 82.3061 5.50094 81.89 5.68374C81.4763 5.86412 81.1251 6.12508 80.8365 6.46661C80.5479 6.80574 80.3266 7.22063 80.1727 7.71128C80.0212 8.20193 79.9454 8.75752 79.9454 9.37805ZM88.7252 9.37805C88.7252 8.84411 88.7781 8.34143 88.8839 7.87002C88.9897 7.39621 89.1425 6.96087 89.3421 6.56402C89.5441 6.16477 89.7883 5.8076 90.0745 5.49253C90.3607 5.17505 90.6842 4.90687 91.0449 4.688C91.4057 4.46673 91.8002 4.29716 92.2283 4.17931C92.6564 4.06146 93.1122 4.00253 93.5956 4.00253C94.079 4.00253 94.5348 4.06146 94.9629 4.17931C95.3911 4.29716 95.7855 4.46673 96.1463 4.688C96.5071 4.90687 96.8305 5.17505 97.1168 5.49253C97.4054 5.8076 97.6495 6.16477 97.8491 6.56402C98.0488 6.96087 98.2015 7.39621 98.3073 7.87002C98.4155 8.34143 98.4697 8.84411 98.4697 9.37805C98.4697 9.90959 98.4155 10.4123 98.3073 10.8861C98.2015 11.3599 98.0488 11.7964 97.8491 12.1957C97.6495 12.5925 97.4054 12.9497 97.1168 13.2672C96.8305 13.5823 96.5071 13.8504 96.1463 14.0717C95.7855 14.2906 95.3911 14.4589 94.9629 14.5768C94.5348 14.6946 94.079 14.7536 93.5956 14.7536C93.1122 14.7536 92.6564 14.6946 92.2283 14.5768C91.8002 14.4589 91.4057 14.2906 91.0449 14.0717C90.6842 13.8504 90.3607 13.5823 90.0745 13.2672C89.7883 12.9497 89.5441 12.5925 89.3421 12.1957C89.1425 11.7964 88.9897 11.3599 88.8839 10.8861C88.7781 10.4123 88.7252 9.90959 88.7252 9.37805ZM90.2404 9.37805C90.2404 9.99858 90.3162 10.5542 90.4677 11.0448C90.6216 11.5355 90.8429 11.9516 91.1315 12.2931C91.4202 12.6322 91.7713 12.8932 92.185 13.076C92.6011 13.2564 93.0713 13.3466 93.5956 13.3466C94.1199 13.3466 94.5889 13.2564 95.0026 13.076C95.4187 12.8932 95.7711 12.6322 96.0597 12.2931C96.3483 11.9516 96.5696 11.5355 96.7235 11.0448C96.8774 10.5542 96.9544 9.99858 96.9544 9.37805C96.9544 8.75752 96.8774 8.20193 96.7235 7.71128C96.5696 7.22063 96.3483 6.80574 96.0597 6.46661C95.7711 6.12508 95.4187 5.86412 95.0026 5.68374C94.5889 5.50094 94.1199 5.40955 93.5956 5.40955C93.0713 5.40955 92.6011 5.50094 92.185 5.68374C91.7713 5.86412 91.4202 6.12508 91.1315 6.46661C90.8429 6.80574 90.6216 7.22063 90.4677 7.71128C90.3162 8.20193 90.2404 8.75752 90.2404 9.37805Z" fill="white"/>
</svg>
