<svg width="221" height="70" viewBox="0 0 221 70" fill="none" xmlns="http://www.w3.org/2000/svg">
<g opacity="0.3">
<g clip-path="url(#clip0_228_13865)">
<g clip-path="url(#clip1_228_13865)">
<path d="M4.86914 65.8732C4.96504 66.5469 4.46157 66.7664 4.46157 67.3789C4.46157 67.9913 5.14725 67.5932 5.49249 67.0216C6.01994 66.1482 5.65699 64.4548 5.77686 63.9189C5.89674 63.383 6.40205 61.989 6.64329 62.0451C6.88452 62.1013 7.6152 62.5555 7.48241 63.4743C7.38651 64.1378 6.85906 66.1028 7.67421 65.4648C8.48936 64.8268 8.82501 63.2701 8.72911 62.5555C8.63321 61.841 7.77011 60.5139 7.77011 60.0035C7.77011 59.4931 8.46538 58.2171 8.80103 57.5791C9.13668 56.9411 9.64692 57.5438 10.6778 57.7224C11.7088 57.9011 11.8089 57.1168 11.4013 56.9382C10.9937 56.7596 10.0238 56.0989 9.16066 56.0989C8.29756 56.0989 8.01466 56.4547 7.37567 56.4547C6.73669 56.4547 6.18776 56.0224 5.32467 56.0989C4.46157 56.1755 3.93412 57.0177 3.33475 56.8646C2.73537 56.7114 2.7114 57.3494 2.9991 57.5791C3.2868 57.8088 3.93412 57.9619 4.46157 57.5791C4.98902 57.1963 5.70826 56.9922 6.01994 57.477C6.33161 57.9619 5.63634 60.2587 5.32467 60.8202C5.01299 61.3816 4.67734 62.3514 4.60542 63.4743C4.53349 64.5972 4.74927 65.031 4.86914 65.8732Z" fill="white"/>
<ellipse cx="7.36847" cy="54.7735" rx="1.10285" ry="1.17393" fill="white"/>
</g>
</g>
<path d="M18.9043 62.3042V61.1323H21.8926C22.6494 61.1323 23.2354 60.937 23.6504 60.5464C24.0654 60.1509 24.2729 59.6064 24.2729 58.9131V58.8984C24.2729 58.2002 24.0654 57.6558 23.6504 57.2651C23.2354 56.8745 22.6494 56.6792 21.8926 56.6792H18.9043V55.5073H22.2295C22.8936 55.5073 23.4795 55.6489 23.9873 55.9321C24.4951 56.2153 24.8931 56.6108 25.1812 57.1187C25.4741 57.6265 25.6206 58.2148 25.6206 58.8838V58.8984C25.6206 59.5674 25.4741 60.1582 25.1812 60.6709C24.8931 61.1836 24.4951 61.584 23.9873 61.8721C23.4795 62.1602 22.8936 62.3042 22.2295 62.3042H18.9043ZM18.2451 66.0762V55.5073H19.5635V66.0762H18.2451ZM29.4113 66.2153C28.9133 66.2153 28.4641 66.1201 28.0637 65.9297C27.6682 65.7393 27.3532 65.4683 27.1188 65.1167C26.8894 64.7651 26.7746 64.3501 26.7746 63.8716V63.8569C26.7746 63.3882 26.8869 62.9878 27.1115 62.6558C27.3361 62.3188 27.6633 62.0552 28.093 61.8647C28.5227 61.6743 29.0427 61.562 29.653 61.5278L32.5534 61.3521V62.3701L29.8068 62.5459C29.2063 62.5801 28.7668 62.7046 28.4885 62.9194C28.215 63.1343 28.0783 63.437 28.0783 63.8276V63.8423C28.0783 64.2427 28.2297 64.5552 28.5324 64.7798C28.8352 64.9995 29.216 65.1094 29.675 65.1094C30.1096 65.1094 30.4953 65.0239 30.8322 64.853C31.1691 64.6772 31.4328 64.4404 31.6232 64.1426C31.8186 63.8447 31.9162 63.5078 31.9162 63.1318V60.6709C31.9162 60.1826 31.7673 59.8115 31.4694 59.5576C31.1765 59.2988 30.7346 59.1694 30.1438 59.1694C29.6701 59.1694 29.2819 59.2549 28.9792 59.4258C28.6765 59.5918 28.4738 59.8286 28.3713 60.1362L28.364 60.1582H27.0896L27.0969 60.1143C27.1652 59.6992 27.3361 59.3379 27.6096 59.0303C27.8879 58.7178 28.2468 58.4761 28.6862 58.3052C29.1257 58.1294 29.6262 58.0415 30.1877 58.0415C30.8322 58.0415 31.3767 58.1465 31.821 58.3564C32.2702 58.5664 32.6096 58.8691 32.8391 59.2646C33.0734 59.6553 33.1906 60.124 33.1906 60.6709V66.0762H31.9162V64.9116H31.799C31.633 65.1899 31.4304 65.4268 31.1911 65.6221C30.9567 65.8174 30.6906 65.9663 30.3928 66.0688C30.0949 66.1665 29.7678 66.2153 29.4113 66.2153ZM38.4462 66.2153C37.7089 66.2153 37.0692 66.0469 36.5272 65.71C35.9853 65.373 35.5653 64.897 35.2675 64.2817C34.9696 63.6665 34.8207 62.9414 34.8207 62.1064V62.0918C34.8207 61.2715 34.9672 60.5586 35.2602 59.9531C35.558 59.3477 35.9779 58.8789 36.5199 58.5469C37.0619 58.21 37.7016 58.0415 38.4389 58.0415C39.0785 58.0415 39.6303 58.1538 40.0941 58.3784C40.558 58.603 40.9291 58.9058 41.2074 59.2866C41.4857 59.6626 41.664 60.085 41.7421 60.5537L41.7494 60.5977H40.4823L40.475 60.5757C40.3773 60.1851 40.1552 59.853 39.8085 59.5796C39.4618 59.3062 39.0053 59.1694 38.4389 59.1694C37.9652 59.1694 37.5551 59.2891 37.2084 59.5283C36.8617 59.7676 36.5932 60.1069 36.4027 60.5464C36.2172 60.981 36.1244 61.4961 36.1244 62.0918V62.1064C36.1244 62.7119 36.2196 63.2393 36.4101 63.6885C36.6005 64.1328 36.869 64.4771 37.2157 64.7212C37.5624 64.9653 37.9701 65.0874 38.4389 65.0874C38.9711 65.0874 39.4057 64.9727 39.7426 64.7432C40.0795 64.5137 40.3212 64.1792 40.4677 63.7397L40.4823 63.6958L41.7421 63.6885L41.7274 63.769C41.62 64.2427 41.4296 64.665 41.1562 65.0361C40.8827 65.4023 40.5214 65.6904 40.0722 65.9004C39.6229 66.1104 39.081 66.2153 38.4462 66.2153ZM43.2989 66.0762V58.1807H49.6856V66.0762H48.4112V59.2354H44.5733V66.0762H43.2989ZM54.9925 66.2153C54.2454 66.2153 53.5984 66.0518 53.0516 65.7246C52.5096 65.3926 52.0896 64.9214 51.7918 64.311C51.4988 63.7007 51.3523 62.9756 51.3523 62.1357V62.1211C51.3523 61.2764 51.4988 60.5488 51.7918 59.9385C52.0896 59.3281 52.5096 58.8594 53.0516 58.5322C53.5984 58.2051 54.2454 58.0415 54.9925 58.0415C55.7444 58.0415 56.3914 58.2051 56.9334 58.5322C57.4754 58.8594 57.8929 59.3281 58.1858 59.9385C58.4837 60.5488 58.6326 61.2764 58.6326 62.1211V62.1357C58.6326 62.9756 58.4837 63.7007 58.1858 64.311C57.8929 64.9214 57.4754 65.3926 56.9334 65.7246C56.3914 66.0518 55.7444 66.2153 54.9925 66.2153ZM54.9925 65.0874C55.4905 65.0874 55.9129 64.9702 56.2596 64.7358C56.6063 64.5015 56.8699 64.1646 57.0506 63.7251C57.2361 63.2856 57.3289 62.7559 57.3289 62.1357V62.1211C57.3289 61.4961 57.2361 60.9639 57.0506 60.5244C56.8699 60.085 56.6063 59.7505 56.2596 59.521C55.9129 59.2866 55.4905 59.1694 54.9925 59.1694C54.4944 59.1694 54.0721 59.2866 53.7254 59.521C53.3787 59.7505 53.1126 60.085 52.9271 60.5244C52.7464 60.9639 52.6561 61.4961 52.6561 62.1211V62.1357C52.6561 62.7559 52.7464 63.2856 52.9271 63.7251C53.1126 64.1646 53.3787 64.5015 53.7254 64.7358C54.0721 64.9702 54.4944 65.0874 54.9925 65.0874ZM62.9141 66.2227C62.3525 66.2227 61.8447 66.1348 61.3906 65.959C60.9414 65.7832 60.5752 65.5391 60.292 65.2266C60.0088 64.9092 59.8403 64.5381 59.7866 64.1133L59.7793 64.0547H61.0757L61.0903 64.1133C61.1733 64.4355 61.3784 64.6919 61.7056 64.8823C62.0327 65.0728 62.4355 65.168 62.9141 65.168C63.4951 65.168 63.9492 65.041 64.2764 64.7871C64.6035 64.5332 64.7671 64.2109 64.7671 63.8203V63.8057C64.7671 63.376 64.6084 63.061 64.291 62.8608C63.9785 62.6558 63.5195 62.5532 62.9141 62.5532H61.6836V61.4985H62.9141C63.4219 61.4985 63.8101 61.3984 64.0786 61.1982C64.3521 60.9932 64.4888 60.6855 64.4888 60.2754V60.2607C64.4888 59.9238 64.3594 59.6455 64.1006 59.4258C63.8467 59.2012 63.4658 59.0889 62.958 59.0889C62.5088 59.0889 62.1279 59.1816 61.8154 59.3672C61.5029 59.5527 61.3149 59.8042 61.2515 60.1216L61.2441 60.1582H59.999L60.0063 60.1069C60.0698 59.6821 60.231 59.3159 60.4897 59.0083C60.7534 58.6958 61.0952 58.4565 61.5151 58.2905C61.9399 58.1196 62.4209 58.0342 62.958 58.0342C63.5488 58.0342 64.0493 58.1245 64.4595 58.3052C64.8745 58.4858 65.1895 58.7373 65.4043 59.0596C65.624 59.377 65.7339 59.7456 65.7339 60.1655V60.1802C65.7339 60.5806 65.6143 60.9419 65.375 61.2642C65.1357 61.5864 64.8208 61.7939 64.4302 61.8867V62.0039C64.7769 62.0771 65.0674 62.1943 65.3018 62.3555C65.541 62.5166 65.7192 62.7144 65.8364 62.9487C65.9585 63.1831 66.0195 63.4468 66.0195 63.7397V63.7544C66.0195 64.2427 65.8877 64.6724 65.624 65.0435C65.3652 65.4146 65.0015 65.7051 64.5327 65.915C64.0688 66.1201 63.5293 66.2227 62.9141 66.2227ZM72.8718 66.0762V62.502H68.9606V66.0762H67.6862V58.1807H68.9606V61.4473H72.8718V58.1807H74.1462V66.0762H72.8718ZM78.3764 66.2153C77.8783 66.2153 77.4291 66.1201 77.0287 65.9297C76.6332 65.7393 76.3183 65.4683 76.0839 65.1167C75.8544 64.7651 75.7396 64.3501 75.7396 63.8716V63.8569C75.7396 63.3882 75.852 62.9878 76.0766 62.6558C76.3012 62.3188 76.6283 62.0552 77.058 61.8647C77.4877 61.6743 78.0077 61.562 78.6181 61.5278L81.5185 61.3521V62.3701L78.7719 62.5459C78.1713 62.5801 77.7318 62.7046 77.4535 62.9194C77.1801 63.1343 77.0434 63.437 77.0434 63.8276V63.8423C77.0434 64.2427 77.1947 64.5552 77.4975 64.7798C77.8002 64.9995 78.1811 65.1094 78.64 65.1094C79.0746 65.1094 79.4604 65.0239 79.7973 64.853C80.1342 64.6772 80.3979 64.4404 80.5883 64.1426C80.7836 63.8447 80.8812 63.5078 80.8812 63.1318V60.6709C80.8812 60.1826 80.7323 59.8115 80.4345 59.5576C80.1415 59.2988 79.6996 59.1694 79.1088 59.1694C78.6352 59.1694 78.247 59.2549 77.9442 59.4258C77.6415 59.5918 77.4389 59.8286 77.3363 60.1362L77.329 60.1582H76.0546L76.0619 60.1143C76.1303 59.6992 76.3012 59.3379 76.5746 59.0303C76.8529 58.7178 77.2118 58.4761 77.6513 58.3052C78.0907 58.1294 78.5912 58.0415 79.1527 58.0415C79.7973 58.0415 80.3417 58.1465 80.786 58.3564C81.2353 58.5664 81.5746 58.8691 81.8041 59.2646C82.0385 59.6553 82.1557 60.124 82.1557 60.6709V66.0762H80.8812V64.9116H80.7641C80.598 65.1899 80.3954 65.4268 80.1562 65.6221C79.9218 65.8174 79.6557 65.9663 79.3578 66.0688C79.06 66.1665 78.7328 66.2153 78.3764 66.2153ZM90.4288 66.2227C89.7159 66.2227 89.0982 66.0688 88.5758 65.7612C88.0533 65.4487 87.6432 65.0044 87.3453 64.4282C87.0523 63.8521 86.8912 63.1636 86.8619 62.3628L86.8839 61.5864C86.9474 60.8442 87.128 60.2095 87.4259 59.6821C87.7286 59.1499 88.1339 58.7422 88.6417 58.459C89.1544 58.1758 89.7501 58.0342 90.4288 58.0342C91.1661 58.0342 91.8009 58.1978 92.3331 58.5249C92.8653 58.8521 93.2755 59.3208 93.5636 59.9312C93.8517 60.5415 93.9957 61.2715 93.9957 62.1211V62.1357C93.9957 62.9805 93.8517 63.708 93.5636 64.3184C93.2755 64.9287 92.8653 65.3999 92.3331 65.7319C91.8009 66.0591 91.1661 66.2227 90.4288 66.2227ZM90.4288 65.0947C90.9122 65.0947 91.3224 64.9775 91.6593 64.7432C91.9962 64.5088 92.2525 64.1719 92.4283 63.7324C92.6041 63.2881 92.692 62.7559 92.692 62.1357V62.1211C92.692 61.4961 92.6041 60.9639 92.4283 60.5244C92.2525 60.0801 91.9962 59.7432 91.6593 59.5137C91.3224 59.2793 90.9122 59.1621 90.4288 59.1621C89.9454 59.1621 89.5353 59.2793 89.1983 59.5137C88.8614 59.7432 88.6051 60.0801 88.4293 60.5244C88.2535 60.9639 88.1656 61.4961 88.1656 62.1211V62.1357C88.1656 62.7559 88.2535 63.2881 88.4293 63.7324C88.6051 64.1719 88.8614 64.5088 89.1983 64.7432C89.5353 64.9775 89.9454 65.0947 90.4288 65.0947ZM84.1739 66.0762V58.1807H85.4483V61.4473H87.5138V62.502H85.4483V66.0762H84.1739ZM99.4385 68.7129V58.1807H100.713V59.4404H100.83C100.991 59.1475 101.194 58.8984 101.438 58.6934C101.682 58.4834 101.96 58.3223 102.273 58.21C102.585 58.0977 102.925 58.0415 103.291 58.0415C103.96 58.0415 104.541 58.2124 105.034 58.5542C105.532 58.8911 105.918 59.3647 106.191 59.9751C106.465 60.5854 106.602 61.3008 106.602 62.1211V62.1357C106.602 62.9609 106.465 63.6787 106.191 64.2891C105.918 64.8994 105.532 65.373 105.034 65.71C104.541 66.0469 103.96 66.2153 103.291 66.2153C102.93 66.2153 102.588 66.1592 102.266 66.0469C101.948 65.9297 101.665 65.7686 101.416 65.5635C101.172 65.3584 100.977 65.1143 100.83 64.8311H100.713V68.7129H99.4385ZM102.998 65.0874C103.481 65.0874 103.894 64.9702 104.236 64.7358C104.578 64.4966 104.839 64.1572 105.02 63.7178C105.205 63.2734 105.298 62.7461 105.298 62.1357V62.1211C105.298 61.5059 105.205 60.9785 105.02 60.5391C104.839 60.0996 104.578 59.7627 104.236 59.5283C103.894 59.2891 103.481 59.1694 102.998 59.1694C102.52 59.1694 102.107 59.2891 101.76 59.5283C101.414 59.7676 101.147 60.1069 100.962 60.5464C100.776 60.9858 100.684 61.5107 100.684 62.1211V62.1357C100.684 62.7412 100.776 63.2661 100.962 63.7104C101.147 64.1499 101.414 64.4893 101.76 64.7285C102.107 64.9678 102.52 65.0874 102.998 65.0874ZM111.513 66.2153C110.761 66.2153 110.114 66.0493 109.572 65.7173C109.035 65.3853 108.62 64.9165 108.327 64.311C108.039 63.7007 107.895 62.9829 107.895 62.1577V62.1504C107.895 61.335 108.039 60.6196 108.327 60.0044C108.62 59.3892 109.032 58.9082 109.565 58.5615C110.097 58.2148 110.719 58.0415 111.432 58.0415C112.15 58.0415 112.765 58.2075 113.278 58.5396C113.796 58.8716 114.191 59.3354 114.465 59.9312C114.743 60.522 114.882 61.2104 114.882 61.9966V62.4946H108.554V61.4766H114.23L113.6 62.4067V61.9014C113.6 61.2812 113.508 60.771 113.322 60.3706C113.136 59.9702 112.88 59.6724 112.553 59.4771C112.226 59.2769 111.85 59.1768 111.425 59.1768C111 59.1768 110.619 59.2817 110.282 59.4917C109.95 59.6968 109.687 60.002 109.491 60.4072C109.296 60.8125 109.198 61.3105 109.198 61.9014V62.4067C109.198 62.9683 109.294 63.4492 109.484 63.8496C109.675 64.2451 109.946 64.5503 110.297 64.7651C110.649 64.9751 111.064 65.0801 111.542 65.0801C111.899 65.0801 112.209 65.0312 112.472 64.9336C112.736 64.8359 112.953 64.7114 113.124 64.5601C113.295 64.4087 113.415 64.2549 113.483 64.0986L113.512 64.0327H114.787L114.772 64.0913C114.704 64.3599 114.582 64.6211 114.406 64.875C114.235 65.124 114.013 65.3511 113.739 65.5562C113.466 65.7563 113.141 65.9175 112.765 66.0396C112.394 66.1567 111.977 66.2153 111.513 66.2153ZM122.35 66.0762H121.075V62.7876H120.958C120.748 62.939 120.487 63.0562 120.174 63.1392C119.867 63.2222 119.5 63.2637 119.076 63.2637C118.123 63.2637 117.403 63.0024 116.915 62.48C116.427 61.9575 116.183 61.2764 116.183 60.4365V58.1807H117.457V60.4365C117.457 60.9541 117.591 61.3667 117.86 61.6743C118.133 61.9819 118.538 62.1357 119.076 62.1357C119.408 62.1357 119.703 62.1089 119.962 62.0552C120.221 62.0015 120.443 61.9282 120.628 61.8354C120.819 61.7427 120.968 61.6353 121.075 61.5132V58.1807H122.35V66.0762ZM124.404 66.0762V58.1807H125.679V60.7148H127.224C128.128 60.7148 128.848 60.9565 129.385 61.4399C129.922 61.9233 130.191 62.5728 130.191 63.3882V63.4028C130.191 64.2183 129.922 64.8677 129.385 65.3511C128.848 65.8345 128.128 66.0762 127.224 66.0762H124.404ZM127.224 61.7695H125.679V65.0215H127.224C127.747 65.0215 128.159 64.875 128.462 64.582C128.765 64.2842 128.916 63.8911 128.916 63.4028V63.3882C128.916 62.895 128.762 62.502 128.455 62.209C128.152 61.916 127.742 61.7695 127.224 61.7695ZM132.678 66.1494C132.419 66.1494 132.194 66.0566 132.004 65.8711C131.818 65.6807 131.725 65.4561 131.725 65.1973C131.725 64.9336 131.818 64.709 132.004 64.5234C132.194 64.3379 132.419 64.2451 132.678 64.2451C132.941 64.2451 133.166 64.3379 133.351 64.5234C133.537 64.709 133.63 64.9336 133.63 65.1973C133.63 65.4561 133.537 65.6807 133.351 65.8711C133.166 66.0566 132.941 66.1494 132.678 66.1494ZM136.681 66.1494C136.422 66.1494 136.197 66.0566 136.007 65.8711C135.821 65.6807 135.729 65.4561 135.729 65.1973C135.729 64.9336 135.821 64.709 136.007 64.5234C136.197 64.3379 136.422 64.2451 136.681 64.2451C136.944 64.2451 137.169 64.3379 137.354 64.5234C137.54 64.709 137.633 64.9336 137.633 65.1973C137.633 65.4561 137.54 65.6807 137.354 65.8711C137.169 66.0566 136.944 66.1494 136.681 66.1494ZM140.684 66.1494C140.425 66.1494 140.2 66.0566 140.01 65.8711C139.824 65.6807 139.732 65.4561 139.732 65.1973C139.732 64.9336 139.824 64.709 140.01 64.5234C140.2 64.3379 140.425 64.2451 140.684 64.2451C140.947 64.2451 141.172 64.3379 141.358 64.5234C141.543 64.709 141.636 64.9336 141.636 65.1973C141.636 65.4561 141.543 65.6807 141.358 65.8711C141.172 66.0566 140.947 66.1494 140.684 66.1494Z" fill="white"/>
</g>
<rect x="0.388362" y="0.388362" width="220.223" height="41.2233" rx="12.6116" fill="#131314" fill-opacity="0.8"/>
<rect x="0.388362" y="0.388362" width="220.223" height="41.2233" rx="12.6116" stroke="url(#paint0_linear_228_13865)" stroke-width="0.776725"/>
<g clip-path="url(#clip2_228_13865)">
<rect opacity="0.03" x="35" y="18.5" width="1" height="5" rx="0.5" fill="white"/>
<rect opacity="0.03" x="37.5547" y="18.5" width="1" height="5" rx="0.5" fill="white"/>
<rect opacity="0.1" x="40.1055" y="18.5" width="1" height="5" rx="0.5" fill="white"/>
<rect opacity="0.03" x="42.6602" y="16.5" width="1" height="9" rx="0.5" fill="white"/>
<rect opacity="0.03" x="45.2148" y="18" width="1" height="6" rx="0.5" fill="white"/>
<rect opacity="0.1" x="47.7656" y="17" width="1" height="8" rx="0.5" fill="white"/>
<rect opacity="0.03" x="50.3203" y="15.5" width="1" height="11" rx="0.5" fill="white"/>
<rect opacity="0.03" x="52.875" y="18" width="1" height="6" rx="0.5" fill="white"/>
<rect opacity="0.1" x="55.4258" y="15.5" width="1" height="11" rx="0.5" fill="white"/>
<rect opacity="0.03" x="57.9805" y="15" width="1" height="12" rx="0.5" fill="white"/>
<rect opacity="0.1" x="60.5352" y="16.5" width="1" height="9" rx="0.5" fill="white"/>
<rect opacity="0.03" x="63.0898" y="18" width="1" height="6" rx="0.5" fill="white"/>
<rect opacity="0.03" x="65.6406" y="17" width="1" height="8" rx="0.5" fill="white"/>
<rect opacity="0.1" x="68.1953" y="17" width="1" height="8" rx="0.5" fill="white"/>
<rect opacity="0.03" x="70.75" y="16.5" width="1" height="9" rx="0.5" fill="white"/>
<rect opacity="0.1" x="73.3008" y="15.5" width="1" height="11" rx="0.5" fill="white"/>
<rect opacity="0.03" x="75.8555" y="20" width="1" height="2" rx="0.5" fill="white"/>
<rect opacity="0.1" x="78.4102" y="18" width="1" height="6" rx="0.5" fill="white"/>
<rect opacity="0.03" x="80.9609" y="16.5" width="1" height="9" rx="0.5" fill="white"/>
<rect opacity="0.03" x="83.5156" y="17" width="1" height="8" rx="0.5" fill="white"/>
<rect opacity="0.1" x="86.0703" y="16.5" width="1" height="9" rx="0.5" fill="white"/>
<rect opacity="0.03" x="88.6211" y="17" width="1" height="8" rx="0.5" fill="white"/>
<rect opacity="0.03" x="91.1758" y="15.5" width="1" height="11" rx="0.5" fill="white"/>
<rect opacity="0.03" x="93.7305" y="15.5" width="1" height="11" rx="0.5" fill="white"/>
<rect opacity="0.1" x="96.2812" y="18.5" width="1" height="5" rx="0.5" fill="white"/>
<rect opacity="0.03" x="98.8359" y="16.5" width="1" height="9" rx="0.5" fill="white"/>
<rect opacity="0.03" x="101.391" y="17" width="1" height="8" rx="0.5" fill="white"/>
<rect opacity="0.1" x="103.941" y="16.5" width="1" height="9" rx="0.5" fill="white"/>
<rect opacity="0.1" x="106.496" y="15.5" width="1" height="11" rx="0.5" fill="white"/>
<rect opacity="0.03" x="109.051" y="15.5" width="1" height="11" rx="0.5" fill="white"/>
<rect opacity="0.03" x="111.605" y="18.5" width="1" height="5" rx="0.5" fill="white"/>
<rect opacity="0.1" x="114.156" y="18.5" width="1" height="5" rx="0.5" fill="white"/>
<rect opacity="0.1" x="116.711" y="18.5" width="1" height="5" rx="0.5" fill="white"/>
<rect opacity="0.03" x="119.266" y="18.5" width="1" height="5" rx="0.5" fill="white"/>
<rect opacity="0.1" x="121.816" y="16.5" width="1" height="9" rx="0.5" fill="white"/>
<rect opacity="0.03" x="124.371" y="18" width="1" height="6" rx="0.5" fill="white"/>
<rect opacity="0.1" x="126.926" y="17" width="1" height="8" rx="0.5" fill="white"/>
<rect opacity="0.03" x="129.477" y="15.5" width="1" height="11" rx="0.5" fill="white"/>
<rect opacity="0.03" x="132.031" y="18.5" width="1" height="5" rx="0.5" fill="white"/>
<rect opacity="0.03" x="134.586" y="18" width="1" height="6" rx="0.5" fill="white"/>
<rect opacity="0.1" x="137.137" y="18.5" width="1" height="5" rx="0.5" fill="white"/>
<rect opacity="0.03" x="139.691" y="15.5" width="1" height="11" rx="0.5" fill="white"/>
<rect opacity="0.03" x="142.246" y="18.5" width="1" height="5" rx="0.5" fill="white"/>
<rect opacity="0.1" x="144.797" y="15" width="1" height="12" rx="0.5" fill="white"/>
<rect opacity="0.1" x="147.352" y="16.5" width="1" height="9" rx="0.5" fill="white"/>
<rect opacity="0.03" x="149.906" y="16.5" width="1" height="9" rx="0.5" fill="white"/>
</g>
<path d="M161.75 27.1758C161.129 27.1758 160.598 26.998 160.156 26.6426C159.715 26.2832 159.375 25.7754 159.137 25.1191C158.898 24.459 158.779 23.6797 158.779 22.7812V22.7637C158.779 21.8613 158.898 21.082 159.137 20.4258C159.375 19.7695 159.715 19.2637 160.156 18.9082C160.598 18.5488 161.129 18.3691 161.75 18.3691C162.371 18.3691 162.902 18.5488 163.344 18.9082C163.789 19.2637 164.131 19.7715 164.369 20.4316C164.611 21.0879 164.732 21.8652 164.732 22.7637V22.7812C164.732 23.6836 164.611 24.4629 164.369 25.1191C164.131 25.7754 163.789 26.2832 163.344 26.6426C162.902 26.998 162.371 27.1758 161.75 27.1758ZM161.75 26.4727C162.207 26.4727 162.598 26.3223 162.922 26.0215C163.246 25.7207 163.494 25.2949 163.666 24.7441C163.842 24.1895 163.93 23.5352 163.93 22.7812V22.7637C163.93 22.0059 163.842 21.3516 163.666 20.8008C163.494 20.25 163.246 19.8262 162.922 19.5293C162.598 19.2285 162.207 19.0781 161.75 19.0781C161.297 19.0781 160.908 19.2285 160.584 19.5293C160.26 19.8262 160.012 20.252 159.84 20.8066C159.668 21.3574 159.582 22.0098 159.582 22.7637V22.7812C159.582 23.5352 159.668 24.1895 159.84 24.7441C160.012 25.2949 160.26 25.7207 160.584 26.0215C160.908 26.3223 161.297 26.4727 161.75 26.4727ZM168.662 27.1758C168.041 27.1758 167.509 26.998 167.068 26.6426C166.627 26.2832 166.287 25.7754 166.048 25.1191C165.81 24.459 165.691 23.6797 165.691 22.7812V22.7637C165.691 21.8613 165.81 21.082 166.048 20.4258C166.287 19.7695 166.627 19.2637 167.068 18.9082C167.509 18.5488 168.041 18.3691 168.662 18.3691C169.283 18.3691 169.814 18.5488 170.255 18.9082C170.701 19.2637 171.043 19.7715 171.281 20.4316C171.523 21.0879 171.644 21.8652 171.644 22.7637V22.7812C171.644 23.6836 171.523 24.4629 171.281 25.1191C171.043 25.7754 170.701 26.2832 170.255 26.6426C169.814 26.998 169.283 27.1758 168.662 27.1758ZM168.662 26.4727C169.119 26.4727 169.509 26.3223 169.834 26.0215C170.158 25.7207 170.406 25.2949 170.578 24.7441C170.754 24.1895 170.841 23.5352 170.841 22.7812V22.7637C170.841 22.0059 170.754 21.3516 170.578 20.8008C170.406 20.25 170.158 19.8262 169.834 19.5293C169.509 19.2285 169.119 19.0781 168.662 19.0781C168.209 19.0781 167.82 19.2285 167.496 19.5293C167.171 19.8262 166.923 20.252 166.752 20.8066C166.58 21.3574 166.494 22.0098 166.494 22.7637V22.7812C166.494 23.5352 166.58 24.1895 166.752 24.7441C166.923 25.2949 167.171 25.7207 167.496 26.0215C167.82 26.3223 168.209 26.4727 168.662 26.4727ZM173.558 25.793C173.39 25.793 173.245 25.7324 173.124 25.6113C173.003 25.4902 172.943 25.3457 172.943 25.1777C172.943 25.0059 173.003 24.8613 173.124 24.7441C173.245 24.623 173.39 24.5625 173.558 24.5625C173.734 24.5625 173.88 24.623 173.997 24.7441C174.118 24.8613 174.179 25.0059 174.179 25.1777C174.179 25.3457 174.118 25.4902 173.997 25.6113C173.88 25.7324 173.734 25.793 173.558 25.793ZM173.558 20.9824C173.39 20.9824 173.245 20.9219 173.124 20.8008C173.003 20.6797 172.943 20.5352 172.943 20.3672C172.943 20.1953 173.003 20.0508 173.124 19.9336C173.245 19.8125 173.39 19.752 173.558 19.752C173.734 19.752 173.88 19.8125 173.997 19.9336C174.118 20.0508 174.179 20.1953 174.179 20.3672C174.179 20.5352 174.118 20.6797 173.997 20.8008C173.88 20.9219 173.734 20.9824 173.558 20.9824ZM179.649 27V25.0898H175.401V24.3633C175.608 24.0273 175.815 23.6934 176.022 23.3613C176.229 23.0254 176.446 22.6816 176.673 22.3301C176.899 21.9785 177.143 21.6094 177.405 21.2227C177.667 20.832 177.952 20.416 178.261 19.9746C178.569 19.5293 178.911 19.0488 179.286 18.5332H180.429V24.375H181.694V25.0898H180.429V27H179.649ZM176.239 24.375H179.655V19.3008H179.596C179.261 19.7656 178.956 20.1934 178.682 20.584C178.409 20.9707 178.159 21.332 177.932 21.668C177.706 22.0039 177.495 22.3203 177.3 22.6172C177.108 22.9141 176.925 23.2031 176.749 23.4844C176.577 23.7617 176.407 24.041 176.239 24.3223V24.375ZM185.436 27.1758C184.928 27.1758 184.471 27.0762 184.065 26.877C183.663 26.6738 183.336 26.4023 183.086 26.0625C182.84 25.7188 182.696 25.334 182.653 24.9082L182.647 24.8496H183.414L183.42 24.8965C183.459 25.1855 183.571 25.4492 183.754 25.6875C183.938 25.9258 184.176 26.1152 184.469 26.2559C184.762 26.3965 185.086 26.4668 185.442 26.4668C185.86 26.4668 186.227 26.375 186.543 26.1914C186.864 26.0078 187.116 25.7539 187.299 25.4297C187.483 25.1055 187.575 24.7383 187.575 24.3281V24.3164C187.575 23.9062 187.483 23.541 187.299 23.2207C187.116 22.8965 186.868 22.6426 186.555 22.459C186.243 22.2754 185.885 22.1836 185.483 22.1836C185.151 22.1836 184.842 22.2422 184.557 22.3594C184.276 22.4766 184.032 22.6484 183.825 22.875C183.766 22.9375 183.709 23.0039 183.655 23.0742C183.6 23.1445 183.549 23.2227 183.502 23.3086H182.793L183.262 18.5449H187.85V19.2598H183.895L183.561 22.459H183.631C183.768 22.252 183.936 22.0781 184.135 21.9375C184.338 21.793 184.565 21.6816 184.815 21.6035C185.065 21.5254 185.329 21.4863 185.606 21.4863C186.133 21.4863 186.604 21.6094 187.018 21.8555C187.432 22.0977 187.758 22.4297 187.996 22.8516C188.235 23.2734 188.354 23.7559 188.354 24.2988V24.3105C188.354 24.8652 188.227 25.3594 187.973 25.793C187.723 26.2227 187.379 26.5605 186.942 26.8066C186.504 27.0527 186.002 27.1758 185.436 27.1758ZM194.73 27.1055C194.148 27.1055 193.644 26.9727 193.218 26.707C192.793 26.4375 192.463 26.0566 192.228 25.5645C191.998 25.0723 191.882 24.4941 191.882 23.8301V23.8184C191.882 23.1582 191.998 22.5879 192.228 22.1074C192.459 21.623 192.787 21.248 193.213 20.9824C193.642 20.7168 194.146 20.584 194.724 20.584C195.205 20.584 195.627 20.6699 195.99 20.8418C196.353 21.0098 196.646 21.2402 196.869 21.5332C197.095 21.8262 197.242 22.1562 197.308 22.5234V22.5469H196.541V22.5352C196.447 22.1719 196.242 21.8711 195.925 21.6328C195.609 21.3906 195.209 21.2695 194.724 21.2695C194.306 21.2695 193.943 21.375 193.634 21.5859C193.326 21.793 193.088 22.0879 192.92 22.4707C192.752 22.8496 192.668 23.2988 192.668 23.8184V23.8301C192.668 24.3535 192.752 24.8105 192.92 25.2012C193.091 25.5879 193.332 25.8887 193.64 26.1035C193.949 26.3145 194.31 26.4199 194.724 26.4199C195.193 26.4199 195.582 26.3145 195.89 26.1035C196.203 25.8926 196.416 25.5957 196.529 25.2129L196.541 25.1836L197.302 25.1777L197.296 25.2305C197.214 25.5977 197.062 25.9238 196.839 26.209C196.621 26.4902 196.334 26.7109 195.978 26.8711C195.627 27.0273 195.211 27.1055 194.73 27.1055ZM200.974 27.1055C200.384 27.1055 199.874 26.9727 199.445 26.707C199.019 26.4414 198.691 26.0664 198.46 25.582C198.23 25.0977 198.114 24.5254 198.114 23.8652V23.8535C198.114 23.1973 198.23 22.625 198.46 22.1367C198.691 21.6445 199.015 21.2637 199.433 20.9941C199.855 20.7207 200.347 20.584 200.909 20.584C201.476 20.584 201.962 20.7168 202.368 20.9824C202.779 21.2441 203.093 21.6113 203.312 22.084C203.534 22.5527 203.646 23.0977 203.646 23.7188V24.0469H198.513V23.4141H203.253L202.872 23.9824V23.6895C202.872 23.1621 202.788 22.7207 202.62 22.3652C202.456 22.0059 202.226 21.7344 201.929 21.5508C201.636 21.3672 201.296 21.2754 200.909 21.2754C200.519 21.2754 200.173 21.3691 199.872 21.5566C199.571 21.7441 199.333 22.0195 199.157 22.3828C198.986 22.7422 198.9 23.1777 198.9 23.6895V23.9824C198.9 24.4863 198.986 24.9199 199.157 25.2832C199.329 25.6465 199.571 25.9258 199.884 26.1211C200.196 26.3164 200.566 26.4141 200.991 26.4141C201.296 26.4141 201.568 26.3711 201.806 26.2852C202.048 26.1992 202.249 26.0859 202.409 25.9453C202.57 25.8008 202.685 25.6484 202.755 25.4883L202.773 25.4414H203.552L203.534 25.4883C203.472 25.7031 203.368 25.9082 203.224 26.1035C203.083 26.2949 202.904 26.4668 202.685 26.6191C202.466 26.7676 202.212 26.8867 201.923 26.9766C201.638 27.0625 201.321 27.1055 200.974 27.1055ZM205.905 24.0703H205.595V27H204.821V20.6895H205.595V23.4551H205.905L208.647 20.6895H209.591L206.479 23.7891V23.6426L209.725 27H208.718L205.905 24.0703Z" fill="white"/>
<path d="M27 21C27 22.3512 26.609 23.6735 25.8741 24.8073C25.1392 25.9411 24.0918 26.838 22.8584 27.3898C21.625 27.9415 20.2583 28.1245 18.9232 27.9167C17.5882 27.7088 16.3418 27.1191 15.3345 26.2185C14.3272 25.3179 13.602 24.1451 13.2466 22.8415C12.8911 21.5379 12.9205 20.1593 13.3313 18.8721C13.742 17.5849 14.5165 16.444 15.5613 15.5873C16.6061 14.7305 17.8765 14.1944 19.2192 14.0437" stroke="white" stroke-width="2"/>
<defs>
<linearGradient id="paint0_linear_228_13865" x1="110.5" y1="0" x2="110.5" y2="42" gradientUnits="userSpaceOnUse">
<stop stop-color="white" stop-opacity="0.1"/>
<stop offset="1" stop-color="white" stop-opacity="0.04"/>
</linearGradient>
<clipPath id="clip0_228_13865">
<rect width="14" height="14" fill="white" transform="translate(0 53.5762)"/>
</clipPath>
<clipPath id="clip1_228_13865">
<rect width="10.6758" height="13.7261" fill="white" transform="translate(2 53.5762)"/>
</clipPath>
<clipPath id="clip2_228_13865">
<rect width="117" height="12" fill="white" transform="translate(35 15)"/>
</clipPath>
</defs>
</svg>
