<svg width="117" height="12" viewBox="0 0 117 12" fill="none" xmlns="http://www.w3.org/2000/svg">
<g clip-path="url(#clip0_5482_6671)">
<rect opacity="0.03" y="3.5" width="1" height="5" rx="0.5" fill="white"/>
<rect opacity="0.03" x="2.55347" y="3.5" width="1" height="5" rx="0.5" fill="white"/>
<rect opacity="0.1" x="5.10693" y="3.5" width="1" height="5" rx="0.5" fill="white"/>
<rect opacity="0.03" x="7.6604" y="1.5" width="1" height="9" rx="0.5" fill="white"/>
<rect opacity="0.03" x="10.2139" y="3" width="1" height="6" rx="0.5" fill="white"/>
<rect opacity="0.1" x="12.7673" y="2" width="1" height="8" rx="0.5" fill="white"/>
<rect opacity="0.03" x="15.3208" y="0.5" width="1" height="11" rx="0.5" fill="white"/>
<rect opacity="0.03" x="17.8743" y="3" width="1" height="6" rx="0.5" fill="white"/>
<rect opacity="0.1" x="20.4275" y="0.5" width="1" height="11" rx="0.5" fill="white"/>
<rect opacity="0.03" x="22.981" width="1" height="12" rx="0.5" fill="white"/>
<rect opacity="0.1" x="25.5344" y="1.5" width="1" height="9" rx="0.5" fill="white"/>
<rect opacity="0.03" x="28.0879" y="3" width="1" height="6" rx="0.5" fill="white"/>
<rect opacity="0.03" x="30.6414" y="2" width="1" height="8" rx="0.5" fill="white"/>
<rect opacity="0.1" x="33.1948" y="2" width="1" height="8" rx="0.5" fill="white"/>
<rect opacity="0.03" x="35.7483" y="1.5" width="1" height="9" rx="0.5" fill="white"/>
<rect opacity="0.1" x="38.3018" y="0.5" width="1" height="11" rx="0.5" fill="white"/>
<rect opacity="0.03" x="40.8552" y="5" width="1" height="2" rx="0.5" fill="white"/>
<rect opacity="0.1" x="43.4087" y="3" width="1" height="6" rx="0.5" fill="white"/>
<rect opacity="0.03" x="45.9622" y="1.5" width="1" height="9" rx="0.5" fill="white"/>
<rect opacity="0.03" x="48.5156" y="2" width="1" height="8" rx="0.5" fill="white"/>
<rect opacity="0.1" x="51.0691" y="1.5" width="1" height="9" rx="0.5" fill="white"/>
<rect opacity="0.03" x="53.6226" y="2" width="1" height="8" rx="0.5" fill="white"/>
<rect opacity="0.03" x="56.176" y="0.5" width="1" height="11" rx="0.5" fill="white"/>
<rect opacity="0.03" x="58.7292" y="0.5" width="1" height="11" rx="0.5" fill="white"/>
<rect opacity="0.1" x="61.2827" y="3.5" width="1" height="5" rx="0.5" fill="white"/>
<rect opacity="0.03" x="63.8362" y="1.5" width="1" height="9" rx="0.5" fill="white"/>
<rect opacity="0.03" x="66.3896" y="2" width="1" height="8" rx="0.5" fill="white"/>
<rect opacity="0.1" x="68.9431" y="1.5" width="1" height="9" rx="0.5" fill="white"/>
<rect opacity="0.1" x="71.4966" y="0.5" width="1" height="11" rx="0.5" fill="white"/>
<rect opacity="0.03" x="74.05" y="0.5" width="1" height="11" rx="0.5" fill="white"/>
<rect opacity="0.03" x="76.6035" y="3.5" width="1" height="5" rx="0.5" fill="white"/>
<rect opacity="0.1" x="79.157" y="3.5" width="1" height="5" rx="0.5" fill="white"/>
<rect opacity="0.1" x="81.7104" y="3.5" width="1" height="5" rx="0.5" fill="white"/>
<rect opacity="0.03" x="84.2639" y="3.5" width="1" height="5" rx="0.5" fill="white"/>
<rect opacity="0.1" x="86.8174" y="1.5" width="1" height="9" rx="0.5" fill="white"/>
<rect opacity="0.03" x="89.3708" y="3" width="1" height="6" rx="0.5" fill="white"/>
<rect opacity="0.1" x="91.9243" y="2" width="1" height="8" rx="0.5" fill="white"/>
<rect opacity="0.03" x="94.4778" y="0.5" width="1" height="11" rx="0.5" fill="white"/>
<rect opacity="0.03" x="97.0312" y="3.5" width="1" height="5" rx="0.5" fill="white"/>
<rect opacity="0.03" x="99.5845" y="3" width="1" height="6" rx="0.5" fill="white"/>
<rect opacity="0.1" x="102.138" y="3.5" width="1" height="5" rx="0.5" fill="white"/>
<rect opacity="0.03" x="104.691" y="0.5" width="1" height="11" rx="0.5" fill="white"/>
<rect opacity="0.03" x="107.245" y="3.5" width="1" height="5" rx="0.5" fill="white"/>
<rect opacity="0.1" x="109.798" width="1" height="12" rx="0.5" fill="white"/>
<rect opacity="0.1" x="112.352" y="1.5" width="1" height="9" rx="0.5" fill="white"/>
<rect opacity="0.03" x="114.905" y="1.5" width="1" height="9" rx="0.5" fill="white"/>
</g>
<defs>
<clipPath id="clip0_5482_6671">
<rect width="117" height="12" fill="white"/>
</clipPath>
</defs>
</svg>
