<svg xmlns="http://www.w3.org/2000/svg" version="1.1" xmlns:xlink="http://www.w3.org/1999/xlink" width="256" height="256"><svg width="256" height="256" viewBox="0 0 256 256" fill="none" xmlns="http://www.w3.org/2000/svg">
<g clip-path="url(#clip0_5637_32957)">
<rect width="256" height="256" rx="77" fill="white"></rect>
<path d="M102.012 82.5498C113.194 81.6146 120.306 86.8962 128.583 86.8965C136.862 86.8965 140.527 82.5499 151.708 82.5498C158.347 82.5498 165.475 85.394 171.275 88.1621C174.807 86.6626 178.932 85.8111 182.397 86.8047C193.419 89.966 202.478 90.7178 209.166 89.1758C219.429 86.8092 232.453 100.706 237.112 108.811C241.771 116.915 238.665 126.578 222.204 112.551C205.742 98.5238 234.826 154.539 235.87 158.375C237.733 165.233 216.302 163.675 212.885 163.675C209.469 163.675 217.855 167.104 212.885 172.403C207.916 177.703 197.044 183.937 193.317 194.536C189.59 205.135 181.514 197.965 186.173 187.678C190.832 177.391 196.733 170.845 194.56 170.221C192.385 169.598 165.052 193.601 155.423 193.601C145.797 193.599 183.998 162.429 179.34 162.116C174.681 161.804 146.727 158.687 152.628 153.699C158.53 148.712 176.856 134.372 184.31 123.149C191.764 111.927 190.443 107.349 188.696 104.188C188.073 103.062 185.424 101.754 182.047 100.493C180.237 102.209 176.799 103.269 171.365 102.381C158.009 100.199 151.398 92.8371 147.049 100.63C142.701 108.423 133.694 124.009 133.694 130.244C133.694 136.479 144.875 152.689 146.118 161.417C147.36 170.145 143.012 189.161 132.452 196.954C121.892 204.747 128.724 180.745 129.966 172.64C131.687 161.417 122.22 155.868 119.095 155.183C115.97 154.499 109.424 171.525 107.871 178.071C106.318 184.618 111.02 205.302 104.187 215.97C99.7143 222.952 90.8306 227.815 90.8306 220.334C90.8306 212.853 97.353 210.172 96.1108 201.942C94.5578 191.655 91.7621 186.356 92.6938 172.64C93.6256 158.924 97.9744 147.078 102.012 140.22C106.05 133.362 115.057 105.307 111.02 99.3838C106.982 93.4611 97.6638 95.954 90.8306 100.63C83.9974 105.306 75.6115 103.435 71.8843 100.63C71.5079 100.347 71.1738 100.011 70.8833 99.6416C70.0058 99.6912 69.0898 99.8694 68.1245 100.222C61.2914 102.716 60.3595 125.784 62.5337 132.642C64.7088 139.5 99.0264 165.7 83.3442 164.126C71.7102 162.958 53.5259 142.929 53.5259 148.852C53.5263 154.774 62.8444 162.256 68.1245 177.219C73.4045 192.181 65.0187 193.74 62.5337 187.506C60.0489 181.271 53.526 173.478 46.6929 166.62C34.2743 154.156 36.1323 132.23 36.1323 114.873C36.1323 108.327 31.4731 109.573 25.8823 115.808C20.2916 122.042 10.6634 121.107 15.0112 113.314C19.3596 105.521 24.6405 98.3509 34.269 93.3633C43.8973 88.3759 50.11 88.9996 56.3218 89.623C62.5335 90.2463 66.2615 86.8177 71.5415 86.5058C76.511 86.2125 81.4803 87.8521 84.6372 90.125C89.5775 87.4955 94.9211 83.143 102.012 82.5498ZM198.598 62.3613C204.773 62.3615 209.78 67.3863 209.78 73.584C209.78 79.7815 204.773 84.8054 198.598 84.8056C192.423 84.8056 187.417 79.7816 187.417 73.584C187.417 67.3862 192.423 62.3614 198.598 62.3613ZM57.8745 61.2549C64.05 61.2549 69.0562 66.2797 69.0562 72.4775C69.0559 78.6752 64.0498 83.6992 57.8745 83.6992C51.6994 83.699 46.6931 78.675 46.6929 72.4775C46.6929 66.2798 51.6992 61.2551 57.8745 61.2549ZM128.523 52C136.414 52 142.811 58.4204 142.811 66.3398C142.811 74.259 136.414 80.6786 128.523 80.6787C120.632 80.6785 114.235 74.259 114.235 66.3398C114.235 58.4204 120.632 52.0002 128.523 52Z" fill="black"></path>
</g>
<defs>
<clipPath id="SvgjsClipPath1004">
<rect width="256" height="256" rx="70" fill="white"></rect>
</clipPath>
</defs>
</svg><style>@media (prefers-color-scheme: light) { :root { filter: none; } }
@media (prefers-color-scheme: dark) { :root { filter: none; } }
</style></svg>